<mxfile host="app.diagrams.net" modified="2023-08-31T02:01:01.646Z" agent="Mozilla/5.0 (Windows NT 10.0; Win64; x64) AppleWebKit/537.36 (KHTML, like Gecko) Chrome/116.0.0.0 Safari/537.36" etag="2GSGp3UKPYmOgbVEi6be" version="21.7.0" type="device">
  <diagram name="페이지-1" id="QZwvFwM_inGwRHb3H1L_">
    <mxGraphModel dx="4868" dy="2700" grid="0" gridSize="10" guides="0" tooltips="1" connect="1" arrows="1" fold="1" page="0" pageScale="1" pageWidth="827" pageHeight="1169" background="none" math="0" shadow="0">
      <root>
        <mxCell id="0" />
        <mxCell id="1" parent="0" />
        <mxCell id="UeKgmQtvJm2V4L9KuCcI-17" value="" style="group" parent="1" vertex="1" connectable="0">
          <mxGeometry x="-1819" y="-849" width="973" height="210" as="geometry" />
        </mxCell>
        <mxCell id="HEAWCpbGmRsyPqDrCjQY-3" value="&lt;font style=&quot;&quot;&gt;&lt;b style=&quot;&quot;&gt;&lt;font style=&quot;font-size: 36px;&quot;&gt;WEB-INF&lt;br&gt;&lt;br&gt;&lt;br&gt;&lt;br&gt;&lt;/font&gt;&lt;br&gt;&lt;/b&gt;&lt;/font&gt;" style="rounded=1;whiteSpace=wrap;html=1;movable=1;resizable=1;rotatable=1;deletable=1;editable=1;locked=0;connectable=1;" parent="UeKgmQtvJm2V4L9KuCcI-17" vertex="1">
          <mxGeometry width="973" height="210" as="geometry" />
        </mxCell>
        <mxCell id="UeKgmQtvJm2V4L9KuCcI-16" value="&lt;b&gt;&lt;font style=&quot;font-size: 24px;&quot;&gt;index.jsp&lt;/font&gt;&lt;/b&gt;" style="rounded=1;whiteSpace=wrap;html=1;fillColor=#fad7ac;strokeColor=#b46504;" parent="UeKgmQtvJm2V4L9KuCcI-17" vertex="1">
          <mxGeometry x="154" y="108" width="169" height="53" as="geometry" />
        </mxCell>
        <mxCell id="HEAWCpbGmRsyPqDrCjQY-2" value="&lt;b&gt;&lt;font style=&quot;font-size: 24px;&quot;&gt;admin&lt;/font&gt;&lt;/b&gt;" style="rounded=1;whiteSpace=wrap;html=1;fillColor=#fad7ac;strokeColor=#b46504;" parent="UeKgmQtvJm2V4L9KuCcI-17" vertex="1">
          <mxGeometry x="661" y="112" width="169" height="53" as="geometry" />
        </mxCell>
        <mxCell id="Npa9Y6lDgFgyrHnARazE-2" value="&lt;font style=&quot;font-size: 14px;&quot;&gt;&lt;b&gt;관리자&lt;/b&gt;&lt;/font&gt;" style="text;html=1;strokeColor=none;fillColor=none;align=center;verticalAlign=middle;whiteSpace=wrap;rounded=0;" parent="UeKgmQtvJm2V4L9KuCcI-17" vertex="1">
          <mxGeometry x="715" y="77" width="60" height="30" as="geometry" />
        </mxCell>
        <mxCell id="Npa9Y6lDgFgyrHnARazE-3" value="&lt;font style=&quot;font-size: 14px;&quot;&gt;&lt;b&gt;사용자&lt;/b&gt;&lt;/font&gt;" style="text;html=1;strokeColor=none;fillColor=none;align=center;verticalAlign=middle;whiteSpace=wrap;rounded=0;" parent="UeKgmQtvJm2V4L9KuCcI-17" vertex="1">
          <mxGeometry x="209" y="79" width="60" height="30" as="geometry" />
        </mxCell>
        <mxCell id="UeKgmQtvJm2V4L9KuCcI-18" style="edgeStyle=orthogonalEdgeStyle;rounded=0;orthogonalLoop=1;jettySize=auto;html=1;exitX=0.5;exitY=1;exitDx=0;exitDy=0;entryX=0.5;entryY=0;entryDx=0;entryDy=0;" parent="1" source="HEAWCpbGmRsyPqDrCjQY-2" target="Npa9Y6lDgFgyrHnARazE-108" edge="1">
          <mxGeometry relative="1" as="geometry">
            <mxPoint x="-1075.5" y="-554" as="targetPoint" />
          </mxGeometry>
        </mxCell>
        <mxCell id="Npa9Y6lDgFgyrHnARazE-117" style="edgeStyle=orthogonalEdgeStyle;rounded=0;orthogonalLoop=1;jettySize=auto;html=1;exitX=0.5;exitY=1;exitDx=0;exitDy=0;entryX=0.5;entryY=0;entryDx=0;entryDy=0;" parent="1" source="UeKgmQtvJm2V4L9KuCcI-19" target="Npa9Y6lDgFgyrHnARazE-113" edge="1">
          <mxGeometry relative="1" as="geometry" />
        </mxCell>
        <mxCell id="UeKgmQtvJm2V4L9KuCcI-19" value="&lt;b&gt;&lt;font style=&quot;font-size: 24px;&quot;&gt;QnaList.jsp&lt;/font&gt;&lt;/b&gt;" style="rounded=1;whiteSpace=wrap;html=1;fillColor=#fad7ac;strokeColor=#b46504;" parent="1" vertex="1">
          <mxGeometry x="-1687" y="-332" width="211" height="53" as="geometry" />
        </mxCell>
        <mxCell id="Npa9Y6lDgFgyrHnARazE-120" style="edgeStyle=orthogonalEdgeStyle;rounded=0;orthogonalLoop=1;jettySize=auto;html=1;exitX=0.25;exitY=1;exitDx=0;exitDy=0;entryX=1;entryY=0.5;entryDx=0;entryDy=0;" parent="1" source="UeKgmQtvJm2V4L9KuCcI-30" target="Npa9Y6lDgFgyrHnARazE-110" edge="1">
          <mxGeometry relative="1" as="geometry" />
        </mxCell>
        <mxCell id="Npa9Y6lDgFgyrHnARazE-125" style="edgeStyle=orthogonalEdgeStyle;rounded=0;orthogonalLoop=1;jettySize=auto;html=1;exitX=0.75;exitY=0;exitDx=0;exitDy=0;entryX=0.5;entryY=1;entryDx=0;entryDy=0;" parent="1" source="UeKgmQtvJm2V4L9KuCcI-30" target="Npa9Y6lDgFgyrHnARazE-111" edge="1">
          <mxGeometry relative="1" as="geometry" />
        </mxCell>
        <mxCell id="Npa9Y6lDgFgyrHnARazE-126" style="edgeStyle=orthogonalEdgeStyle;rounded=0;orthogonalLoop=1;jettySize=auto;html=1;exitX=1;exitY=0.75;exitDx=0;exitDy=0;entryX=0;entryY=0.5;entryDx=0;entryDy=0;" parent="1" source="UeKgmQtvJm2V4L9KuCcI-30" target="Npa9Y6lDgFgyrHnARazE-112" edge="1">
          <mxGeometry relative="1" as="geometry">
            <Array as="points">
              <mxPoint x="-617" y="-103" />
              <mxPoint x="-617" y="56" />
            </Array>
          </mxGeometry>
        </mxCell>
        <mxCell id="UeKgmQtvJm2V4L9KuCcI-30" value="&lt;b&gt;&lt;font style=&quot;font-size: 24px;&quot;&gt;getQna.jsp&lt;/font&gt;&lt;/b&gt;" style="rounded=1;whiteSpace=wrap;html=1;fillColor=#fad7ac;strokeColor=#b46504;" parent="1" vertex="1">
          <mxGeometry x="-1126" y="-143" width="211" height="53" as="geometry" />
        </mxCell>
        <mxCell id="UeKgmQtvJm2V4L9KuCcI-31" style="edgeStyle=orthogonalEdgeStyle;rounded=0;orthogonalLoop=1;jettySize=auto;html=1;exitX=0.5;exitY=1;exitDx=0;exitDy=0;entryX=0.5;entryY=0;entryDx=0;entryDy=0;" parent="1" source="UeKgmQtvJm2V4L9KuCcI-16" target="Npa9Y6lDgFgyrHnARazE-114" edge="1">
          <mxGeometry relative="1" as="geometry">
            <mxPoint x="-1581.5" y="-383" as="targetPoint" />
          </mxGeometry>
        </mxCell>
        <mxCell id="Npa9Y6lDgFgyrHnARazE-122" style="edgeStyle=orthogonalEdgeStyle;rounded=0;orthogonalLoop=1;jettySize=auto;html=1;exitX=1;exitY=0.5;exitDx=0;exitDy=0;entryX=0.5;entryY=1;entryDx=0;entryDy=0;" parent="1" source="UeKgmQtvJm2V4L9KuCcI-36" target="Npa9Y6lDgFgyrHnARazE-107" edge="1">
          <mxGeometry relative="1" as="geometry" />
        </mxCell>
        <mxCell id="UeKgmQtvJm2V4L9KuCcI-36" value="&lt;b&gt;&lt;font style=&quot;font-size: 24px;&quot;&gt;Update&lt;/font&gt;&lt;/b&gt;&lt;b style=&quot;border-color: var(--border-color);&quot;&gt;&lt;font style=&quot;border-color: var(--border-color); font-size: 24px;&quot;&gt;Qna&lt;/font&gt;&lt;/b&gt;&lt;b&gt;&lt;font style=&quot;font-size: 24px;&quot;&gt;.jsp&lt;/font&gt;&lt;/b&gt;" style="rounded=1;whiteSpace=wrap;html=1;fillColor=#fad7ac;strokeColor=#b46504;" parent="1" vertex="1">
          <mxGeometry x="-1118" y="314" width="287" height="53" as="geometry" />
        </mxCell>
        <mxCell id="Npa9Y6lDgFgyrHnARazE-128" style="edgeStyle=orthogonalEdgeStyle;rounded=0;orthogonalLoop=1;jettySize=auto;html=1;exitX=0.5;exitY=0;exitDx=0;exitDy=0;entryX=0.5;entryY=1;entryDx=0;entryDy=0;" parent="1" source="UeKgmQtvJm2V4L9KuCcI-37" target="Npa9Y6lDgFgyrHnARazE-109" edge="1">
          <mxGeometry relative="1" as="geometry" />
        </mxCell>
        <mxCell id="UeKgmQtvJm2V4L9KuCcI-37" value="&lt;b&gt;&lt;font style=&quot;font-size: 24px;&quot;&gt;Add&lt;/font&gt;&lt;/b&gt;&lt;b style=&quot;border-color: var(--border-color);&quot;&gt;&lt;font style=&quot;border-color: var(--border-color); font-size: 24px;&quot;&gt;Qna&lt;/font&gt;&lt;/b&gt;&lt;b&gt;&lt;font style=&quot;font-size: 24px;&quot;&gt;.jsp&lt;/font&gt;&lt;/b&gt;" style="rounded=1;whiteSpace=wrap;html=1;fillColor=#fad7ac;strokeColor=#b46504;" parent="1" vertex="1">
          <mxGeometry x="-315" y="-119" width="287" height="53" as="geometry" />
        </mxCell>
        <mxCell id="UeKgmQtvJm2V4L9KuCcI-66" style="edgeStyle=orthogonalEdgeStyle;rounded=0;orthogonalLoop=1;jettySize=auto;html=1;exitX=1;exitY=0.5;exitDx=0;exitDy=0;entryX=0;entryY=0.5;entryDx=0;entryDy=0;shape=flexArrow;startArrow=block;" parent="1" source="UeKgmQtvJm2V4L9KuCcI-65" target="Npa9Y6lDgFgyrHnARazE-106" edge="1">
          <mxGeometry relative="1" as="geometry">
            <mxPoint x="-1014" y="587" as="targetPoint" />
          </mxGeometry>
        </mxCell>
        <mxCell id="UeKgmQtvJm2V4L9KuCcI-65" value="" style="shape=image;verticalLabelPosition=bottom;labelBackgroundColor=default;verticalAlign=top;aspect=fixed;imageAspect=0;image=data:image/png,iVBORw0KGgoAAAANSUhEUgAAAMYAAAA8CAYAAAA9ksUiAAAIeElEQVR4Ae2d63IURRTHeRyKhCUhS3bXSrIJCDGExUyCoBLLKnFrvYCVfFAxFxJKsShLiZQrKoIPQO1D4Me8R3yOY53ZnNme3u4zPbM7ZGfmfJiaS3efvv1/fbp7dpJTp8fLIIe0gWggrIFTaoPMzC+BHNIGooEl6AOjNnsFpt+6JIe0QaE10AcGQnFualYOaYNCa0DAEAAKDYDNCQgYAoaAYdCAgGFoFNsoIs+LM8UWMAQM8RgGDQgYhkYRz1Acz2DrawFDwBCPYdCAgGFoFNsoIs+L40kEDAFDPIZBAwKGoVHEMxTHM9j6WsAQMMRjGDQgYBgaxTaKyPPieJLUwJi4uALl21/B9N1HUPnmKVQfPPcPvMZnGIZxRGzFEVuW+nroYEw1PoLK179C7eE/TgfGxTRZajQpa/5hHhoYE7NLUNn4yQkGEzSYFm2I6PIvuiz08VDAmLzyHlS3nyWGgkBBG2grCw0nZcw3wAODgUKu7b0YGAqCA20JHPkWXRYGlYHAwKnPMDxFAMXxugRtyrTKDoe3uwn//bsDR6/WwZucCXlYLiwLgoxbxrTqOxAYg6wpdBj0e7Qdp5Fm1upwbWceVn9egLVfFuDag3mofzgXy0ac/IYRt9Rs+QJHkXeaYYFz9jkxcGGczbhhXnMdOu1NOHy1HdShCys+a8FBc7EP2rh5uMRPq76JwcCdJF3Mw7533a2auTEHa08WjEd9vT6ScJQmF+FAEdVR23MuJycGLsxFaFFxvGYLDl+HYUAgTMfh7mJfnbyGBwcIlCEsKm9TeFr1TQyGy5Zsdf8FlFs7ULp+G8YWluHM7GUYu7wCJe9jmPpyH2r7L1m4MA9TY+jPlre7UNRv12GiPOcfeI2wXP9+wcmGbjPt+1JjPSSwo9ebcNBw8xqcGLiwQeqEIG+0e0AcvdqEzq4HnlbmUmMR0JuYxK8OBrkEA1/MRXmHyvYzOLv8vg8DAmE6zq19EmnH5SXgyuMuGJO13rx8YrrrRVafjCYYPQFvBoC4iqWX9s2sMVRBI8CdZr8ncIFOteNa1yi7XFtEpeXCE3kMfGvNgVHZfwFnl2/5MJxduuF7h8pW209T2fodyl/sQff5Q9YO5oF5cRXAMFxToHfQ49H0Sn9+0vdhgXjBSGxaTJvKyomBCzPZcnlGNuOuhXTb4Xong0u3SWVzbTs9ve0+ERjT935kBX2++Z0PxfjVW1Dde26OGzGNIvAwL1vh6Tl6hUyBcbzopulT3EU4JwYujNorzlmd8g06yucejKj1BU2hyvcemaFw/LkIwuGyzljVPAZ5CtdzHKEMIy7N1WmUK0160Dle0Loswjnxc2FJyh6U9XULNrStYVd7VCbTAp2eqbtyNFAcHefpA9XublFjfBVQsk1t6VqmqHiJPEZ19y9W8GPzV32PYfUWMcDAvKIqQQBQPLp3PVO6N3FWIVA7OI4AOTFwYXHrZytrXDtUJoLAdLaD4UFH2b3LCRg8QDRd4s4uYOgd5QoExdPTp3lPIqFpFOWlTllUkVC4eg5spPyCrzdyu++YqeXUr12nUr18W9Bpb4PvObTdL7LNtQXFSXJO5DFcp1IX7v3AehYOCApzmUrpFSfBu5719Gndq8LQp0yhMIPg1TJxYuDCVBsu14GtAaZRaj5qHVVvqcbBawIDvYM+gOhxgzJGtJmeLuo+ERiRi+8797s7UotrUN390whHZes3qO78YQwjKPDssvjWK+kKBMXT06d1H+UVgk6OeKcRxDOIgQuLW6/A1gmCwQGE9QnKaGiLuPVV4ycCI2q7tvrwJYwv3fThGHv7XZj6bBf87dr9l1D59imc//Q+jF9s+O85qnt/s3C4bNeqFcJrErzrWU+f1n3UOkIFhxMEJwYuLG69AlsnBEaUt8D6BGUcBTCcXvBttQG3a00v9ujZxAefR779dnnBp3e4KxAUT0+fxr26kNWnUZSfOtWgHRkKU8+cGLgw1YbLdWDrxMCI3gkLyjgKYGCjRq0zcBqEnuP8nfvdN+DzS3Cm/g6MLa7CxM0WXNh8zHoKTJ9kfYFlI8G7nl1EMmgcdd7MLa6po3F+bYtHcUxblFxY3DpQmV1GbhfbKvicR+zlm0EwRulHhHqnuAJB8fT0adzTNMq0VWl7ZvMsnPi5sLj1Uqd2Nkjj2CwEGNggo/Szc7WDSPCuZzVtGteqwGwQmJ7bRmpO/FxY3LqFpn9DmKoUBgz5UKn3o0VOdIFYHefqKkimKUdgzyBWLowroy2M7CG4g3qNwoCBjSmftvJwqGKwTY10UYbSxBQ/Cdm0/tDzcbkPeQ1HsG121XqZgKd0mV5jUCXwjHAM4xPXPP4xBOrkuCMul44TPxem9lmca7Us3FvoKJsqGNwgQflxO3OUVxr1RduJ3mNQodQzTqsGWXNg2jx+502LbpdOVtszNFJrX/dxYuDCVPtxr1Gs6pd7h+112MCPkrQfFnrMh0qYZ1A+fIlp+a4jV2BQQ+NulctWLr3dxriun7BSHlk5q+Lmpg62+tigCsQVc5ply8f1eanR/4M+06YBPTPVWV0/UTzdm+YSDGpkfDGHb62L/Cc6AwFH/MSD2kw/qyJSRRbYfcNgUPmC77a1X72iwA/xk9f2utUboA0TYOrCPtdgUCPKmV+cS/uMZvsMbY0hHTyaHSz9kqxfBAz5NwCRH4IVES4BI+dgqBsA6mKXux7WO5AsAyVgCBh9fyxNwBjie4wsjw5S9mTz8Dy3m3iMnHuMPIs3zboJGAKGLL4NGhAwDI2S5kgktrMxbRMwBAzxGAYNCBiGRpFRPRujepr9JGAIGOIxDBoQMAyNkuZIJLaz4Y0EDAFDPIZBAwKGoVFkVM/GqJ5mP/WBUZu9Ahdql+SQNii0BkJgnB4vgxzSBqKBMvwPL8whhhSdyl4AAAAASUVORK5CYII=;" parent="1" vertex="1">
          <mxGeometry x="-1406.0036363636366" y="556.9999999999995" width="198" height="60" as="geometry" />
        </mxCell>
        <mxCell id="UeKgmQtvJm2V4L9KuCcI-68" value="&lt;b style=&quot;border-color: var(--border-color); font-size: 72px;&quot;&gt;MariaDB&lt;/b&gt;" style="html=1;whiteSpace=wrap;shape=isoCube2;backgroundOutline=1;isoAngle=15;" parent="1" vertex="1">
          <mxGeometry x="-538" y="392" width="419" height="391" as="geometry" />
        </mxCell>
        <mxCell id="Npa9Y6lDgFgyrHnARazE-1" value="&lt;b style=&quot;&quot;&gt;&lt;font style=&quot;font-size: 24px;&quot;&gt;모든 Ctrl은 .do 로 servlet으로 연결하며,&amp;nbsp; DAO &amp;lt;-&amp;gt; MariaDB로 데이터 불러온다.&lt;/font&gt;&lt;/b&gt;" style="text;html=1;strokeColor=none;fillColor=none;align=center;verticalAlign=middle;whiteSpace=wrap;rounded=0;" parent="1" vertex="1">
          <mxGeometry x="-1570" y="-942" width="471" height="54" as="geometry" />
        </mxCell>
        <mxCell id="Npa9Y6lDgFgyrHnARazE-89" value="&lt;span style=&quot;border-color: var(--border-color); font-size: 14px;&quot;&gt;&lt;b&gt;질문글의 id값을 목록으로 불러온다.&lt;/b&gt;&lt;/span&gt;" style="text;html=1;strokeColor=none;fillColor=none;align=center;verticalAlign=middle;whiteSpace=wrap;rounded=0;" parent="1" vertex="1">
          <mxGeometry x="-1585" y="-613" width="252" height="49" as="geometry" />
        </mxCell>
        <mxCell id="Npa9Y6lDgFgyrHnARazE-90" value="&lt;b style=&quot;border-color: var(--border-color); font-size: 14px;&quot;&gt;작성한 질문글의 내용을 &lt;br&gt;DAO -&amp;gt; DB로 저장&lt;br&gt;&lt;/b&gt;" style="text;html=1;strokeColor=none;fillColor=none;align=center;verticalAlign=middle;whiteSpace=wrap;rounded=0;" parent="1" vertex="1">
          <mxGeometry x="-622" y="-206" width="228" height="49" as="geometry" />
        </mxCell>
        <mxCell id="Npa9Y6lDgFgyrHnARazE-102" value="&lt;span style=&quot;border-color: var(--border-color); font-size: 14px;&quot;&gt;&lt;b&gt;해당 질문글을 삭제한다.&lt;/b&gt;&lt;/span&gt;" style="text;html=1;strokeColor=none;fillColor=none;align=center;verticalAlign=middle;whiteSpace=wrap;rounded=0;" parent="1" vertex="1">
          <mxGeometry x="-835" y="-336" width="252" height="49" as="geometry" />
        </mxCell>
        <mxCell id="Npa9Y6lDgFgyrHnARazE-103" value="&lt;b style=&quot;border-color: var(--border-color); font-size: 14px;&quot;&gt;DB의 저장된 질문글의 테이블을&lt;br&gt;전달받아 글 추가로 진행&lt;/b&gt;" style="text;html=1;strokeColor=none;fillColor=none;align=center;verticalAlign=middle;whiteSpace=wrap;rounded=0;" parent="1" vertex="1">
          <mxGeometry x="-598" y="-2" width="204" height="49" as="geometry" />
        </mxCell>
        <mxCell id="Npa9Y6lDgFgyrHnARazE-104" value="&lt;b style=&quot;border-color: var(--border-color); font-size: 14px;&quot;&gt;작성한 질문글의 내용을 &lt;br&gt;DAO -&amp;gt; DB 로 수정하여 저장&lt;br&gt;&lt;/b&gt;" style="text;html=1;strokeColor=none;fillColor=none;align=center;verticalAlign=middle;whiteSpace=wrap;rounded=0;" parent="1" vertex="1">
          <mxGeometry x="-927" y="47" width="228" height="49" as="geometry" />
        </mxCell>
        <mxCell id="Npa9Y6lDgFgyrHnARazE-105" value="&lt;b style=&quot;border-color: var(--border-color); font-size: 14px;&quot;&gt;&amp;nbsp;선택한 질문글의 id값을&lt;br&gt;전달받아 글 수정으로 진행&lt;/b&gt;" style="text;html=1;strokeColor=none;fillColor=none;align=center;verticalAlign=middle;whiteSpace=wrap;rounded=0;" parent="1" vertex="1">
          <mxGeometry x="-1282" y="49" width="204" height="49" as="geometry" />
        </mxCell>
        <mxCell id="Npa9Y6lDgFgyrHnARazE-131" style="edgeStyle=orthogonalEdgeStyle;rounded=0;orthogonalLoop=1;jettySize=auto;html=1;exitX=1;exitY=0.5;exitDx=0;exitDy=0;entryX=0;entryY=0.5;entryDx=0;entryDy=0;entryPerimeter=0;shape=flexArrow;startArrow=block;startFill=0;" parent="1" source="Npa9Y6lDgFgyrHnARazE-106" target="UeKgmQtvJm2V4L9KuCcI-68" edge="1">
          <mxGeometry relative="1" as="geometry" />
        </mxCell>
        <mxCell id="Npa9Y6lDgFgyrHnARazE-106" value="" style="shape=image;verticalLabelPosition=bottom;labelBackgroundColor=default;verticalAlign=top;aspect=fixed;imageAspect=0;image=data:image/png,iVBORw0KGgoAAAANSUhEUgAAAOAAAAA8CAYAAAB/0ba1AAAKjElEQVR4Ae2d/XIURRDAeRyKhCMhgbtYCUlAiCEccgmCSiyrxFT8wjr+UDEfJJRiUZYSKU9UBB8glYfAP/Me8TnG6t3r2d7J7EzP7V52zfUfW/s5Mz3d/ZuemZ29O3FyeFzJJjoQHyjHB06A4idn5mUTHYgPlOADGsCJqSvq/BuXZBMdiA8coQ9oAAG+M2NTsokOxAeO0AcEwCNUtjRw0sCbPiAACoAS8Ur0AQGwROWbraGcD16EFAAFQImAJfqAAFii8iXiDV7EM20uAAqAEgFL9AEBsETlm62hnA9eRBQABUCJgCX6gABYovIl4g1exDNtLgAKgBIBS/QBAbBE5ZutoZwPXkQsHMCRizfU+J0v1fkvHqv6189U4+GLaINjuAb34BlxtsFzNrH5YZsXBuBY8wNV/+oXNfHob9YGz0IaMcpho4hOBkcnuQEcmZpX9faPLOhscEJayEOcbnCcTmyd2DoXgKNX3lGN9ec9w4dAQh6QlxgmMYzoYjB00TOAAMzE1svc8CGEkJdAOBhOJ41LYueeAIQuYxGRT8PXHTdCntIdTYwjjnr8ddETgHnGfCZ05jnkHeJ4k0vT6trGjFr8aVYt/Tyrrj2cUdPvXwjKI6S8vM/Wmi21s7mq9nfvq3//2dDbwev7an93Ve2szKnW6GRl5af1r4221N7rdV0HWh88Ptjt1muzlbtetZVVXdbeSj4dRXbouO1A69qv42AAYebShKboc+7s6OTNC2rp6ax1m16erpQTxwZPQ4dOau4Bxr2VuUrJb3NADoBm3aCRaTfD4amNzqmd3QT2g06rJ/2AHfZIPqZ89Pyg2yDa6l7UtWAAOa8aGtsv1fjqhqpdv6OGZhfUqanLaujyDVVrfajGPt9WE9uvnBBDGZwKLqzH8E3fmVYj4xeiDY4ByuvfzbLy4JST95lac1ntk0ix31lW7WYasFpzTrWjyJg42f5m+pm8chSdngKYFZFalnr10sCYOoQ8dgJBhgjKtgO1Vx/tEAQgvED3Rbv6+nN1euHdCDoAz7adWfrImw/nZf2NJzGAoxPJWGHkfBwVF59WA0DqOByngZa+3UkiZZUh5ABIoW+tpBuiLGhpGjxubcY6ibq0XThCdJO2gz8Kx3ZIGsMQWVFmzj4IQFjF4gKwvv1SnV64HUF3ev5mFO3qa50oTX3tNzX+2ZaKrz9y5gNlQFm+CsCYD6Kd+Rx2S83rR31Ou00c+Kh87U5s/NB0NI9+H4cCCPJEXcAuQAevV1WbMd6letzfbCmtm91l1riSpueWGclKur0h6UL0HgTg+Xs/OME5u/JtBN/w1duqsfXC/qyn+4mAQ1m+ikCUqzSAOSYNqHP3Ot7x6S/vfSpjSISgkymcKIbPY2OE5zBe45SL0ZP7PNULrWM/7BAEoG/8h13P8XuP7fAxl6kBhJxx4KIRATHycfdU0UUfp1pdZkttyoCOg45H7+t73ckIKA+6rnSMw5lEiCaHurOyNC04q2/ChDonBwSUP1Q3ZsSj5fqgCC0LZaR7XT4zYtO0vuMgABubfzrBGpq5GkXAzOgXACCU5RMeQcPn8Jy7x3T92NMxB6eVt8lA8zAdnAJIn6OzeHicVT51ZHzWtuekN+Wz1Yde0/J7JlOojFQOLhRUN6EyoryhERfTcfZ9AtANKnYzXXsOgGYFueDhc2b6Is/RaLboxS0n1Xob0+7agTur0bs4iHZ0ZrXVXNbT7VkyRM4NU+3wju7QrGwyXe9M3x3PhTo3FwxdTwNUbvpi7JC876SNANeOrueCAOR2Qc/d+94ZKV3g4T1OF9SsGILF3ZvpizxPHIc30WArmwMgRKyDjC4uddJeHMeXnkanfgDoqn/qXkb9QafF2CEB0NfltdnRdS0IQO8kzN0H8Qzo3JJqbP5hhbC+9qtqbPxuvYfwwZ4zCWNWjAsePmemL/K8CMODPLqrZTgZ5g8Aupw/Kz23rjq9EYEhfS4AySqarMaBNgC2OqIOsiI0yKifMfTHrX9cz2QRQKkA+l5DNB69UsPztyIIh958W419sqmi1xDbr1T9m2fq7McP1PDFZvSesLH1lxNCzmsIU4kIFndvpi/yXBs+58BdA2A4kM7fuG7WgfucmQ7PdfklAKjLztAhBTQLYp2HR09YX9s+FW0terCl4V4LioCsF/FrHQWvIWwv4PHayHufelfDcF7Em5XkgofPmemLPNeOn+E8nLJchtf5exwrGQO5u8JQVqvZUu2VZbUH40pYw0lWg9ha/lwRkKwOskU3mretbNBfSj8ZetZ6yrjPs0PSBc0CnZOP7ZkgACED3zgQuo8QCc/efRCviJmZV6em31JDc4tq5NaqOnf/iTPyQfpexn8gG4LF3dsUUtS1xPHDl0yhDNTBTMNrx/K0yIkcdgBhdQpnbaQNAgqJDSKsh22fyGXXD973dbFRD1nP4X1XN9UmH71G62nagT7Xy3EwgFVajG1WmAsePmemL/Kcdo9CnRPlcOWhHSsHgJhHNJEDX2N04hnR9ko8KwpfZegunKUc6pihddT5ZkQmvA+ycTdrI+GJtKhr1x4bgzwQZ+UfDCBkVKXPkWjFECzunqYt+phGr6xZSl+ZCIhtGZS+ZwGD5ps4TzoCUrhdrTqCYHVuMpESAiAF11Y2lY0LHzYi5gJtWlavdtA68HT3qd65xz0BKB/kJou/XYpGSMA5QhwU8kw5jgUyzNsGBpUpC0Cd3uNU2vksMlAZQ+qn88yIflq2jPu0fpGuSJSzAY359WQHT96mLKHnPQEIhchPUvghpA5qi2IuYyVOah8joVP1E8CU/AUB2CLrY22wpHoOljJtOkulsTQoqXowoYZyUvkGpLPJmHWtZwAhQ4CwiJ+mOM4/ykS7U/FqFffHqGB0zudIhQGY4VixHMnnODbQqWP7IuChemXAhRE7NFr50tH7XDvQD4B99csCzHc9F4CQOXRH84wJIe1x/x0YMD6d0nd+kEum/m0RAg2aF0BXw4BfjcOkw17328ReAATo4NXGjrFI3FWvJPKnx6xY76w9bQxsskI6ageo237n8BK86ANiIm+kg5w/f5ElM1zPDSBmDrOjnFcUuNoFnuX+9ASW8X/eo1NDy87ZfBMGeQEEXWIeNnnQ8fAZm1NTp7flYV7zRR6anwvSLD/gwBtiB5+8WXKEXC8MQCwUXqDDKhb5aXr7GFFHBON3SaIvvTvpd3LgAOasHurZBQY+A3vsemWNQeP3gMkX+ABNHKHjrrKrHAqMCRucR1Fmd1XtRYu93V1vkFWXZSy8pvVxHdOo7gPYZwe6sN1VZt57hQOYV6BBT2+OleJIVO3fhhl0m+WpvwBY0X9HwmiAkSUarzB+viGPM0hae6+ln3oRACsKIBgdpuzp5M1RjEn66WyS92HABcAKAygOe9hhj5tOBEAB0PvTH8fN6atUHwFQABQAS/QBAbBE5VepJRZZyunuCoACoETAEn1AACxR+RJ1yok6VdK7ACgASgQs0QcEwBKVX6WWWGQpJxoLgAKgRMASfUAALFH5EnXKiTpV0rsAKABKBCzRBwTAEpVfpZZYZCknGmsAJ6auqHMTl2QTHYgPHKEPRACeHB5XsokOxAeO3gf+A5iiV9WgrMyAAAAAAElFTkSuQmCC;" parent="1" vertex="1">
          <mxGeometry x="-1009.9971428571428" y="556.9971428571431" width="224" height="60" as="geometry" />
        </mxCell>
        <mxCell id="Npa9Y6lDgFgyrHnARazE-123" style="edgeStyle=orthogonalEdgeStyle;rounded=0;orthogonalLoop=1;jettySize=auto;html=1;exitX=0;exitY=0.5;exitDx=0;exitDy=0;entryX=0.75;entryY=1;entryDx=0;entryDy=0;" parent="1" source="Npa9Y6lDgFgyrHnARazE-107" target="UeKgmQtvJm2V4L9KuCcI-30" edge="1">
          <mxGeometry relative="1" as="geometry" />
        </mxCell>
        <mxCell id="Npa9Y6lDgFgyrHnARazE-107" value="" style="shape=image;verticalLabelPosition=bottom;labelBackgroundColor=default;verticalAlign=top;aspect=fixed;imageAspect=0;image=data:image/png,iVBORw0KGgoAAAANSUhEUgAAAWMAAAA7CAYAAACuaOvPAAAPc0lEQVR4Ae1d73IUxxH347gMyAIEklKAwI6RMZbDgWMnQalUxVFd/piU+BCHAOJPJaRcqcSEysVJCOQBVHoI8lHvoTzHpHr2erav1TPTe7t7zIn+cDW7tzs9Pd2//k3v7OzuW28fX3L2MxsYBgwDhoHXi4G3wAHnLl6xn9nAMGAYMAy8BgzgIBjIePX8ZXf2O+/bz2xgGDAMGAZmhAHg3UNkDET87unz9jMbGAYMA4aBGWHgzOr7RsY28NjAaxgwDLxuDBgZz2jUe92OtvaNbAwDZWPAyNjI2C5DDQOGgQIwYGRcgBMsYyk7YzH/mH9mgQEjYyNjy4oMA4aBAjBgZFyAE2Yx6loblt0ZBsrGgJGxkbFlRYYBw0ABGDAyLsAJlrGUnbGYf8w/s8CAkbGRsWVFhgHDQAEYMDIuwAmzGHWtDcvuDANlY8DI2MjYsiLDgGGgAAz0SsaL711zSzd/7c5++cQtf/XMrTx47n+wDf/BMTjHRuyyR2zzj/nHMNA/Bnoh49MbP3bLv/mrW338H9UPzoU65vD+HW42NhsbBsrEQKdkvHj+ilve/pOKgCWihrogw8BSJljML+YXw0B/GOiMjE9e/r5bufft1ESM5AwyQJY5vT+nm23NtoaB8jDQCRkDea4+fNGaiJGQQZYRcnlgsQA2nxgG+sNAazKGaYUuMuJAxON5ZpBpUxb9Od6C6rBtF06uu6e799z//nvf7e+s29VZASsMSsLpYOe2x8bB7qYbnDzXOT5ak3GbOWJOwHwfZDdxxrkba+7j+xfd9T9fcjf+csl9/OCiW/vRhUYymrTX9tyFjYF7ujN0+7uVk4EE4Hfw6rbb3x26p1vrvTi9rd5S/YWt4Vj3odtWAnXh5MDtvarIb2+re3BLeqb+OypkvLCx6fbHdkVM0fJg97bbH2267Y3Xb/OUP/DYYGvT7Y0gJiqsYF98P2YYJ0WTMayA4ATa9b52lcW5Ty+4G99cEn9rm2tFEbIn4dEkASPAeAnEvLdVfpZmZHw400YyoeUABmAglh4z7xwZU4ztjwbFDviDrWFyUJnoh2DPrm1dNBlrlq+tPHrhlob33cInN92xS1fdO+c/cMc+uOYWBj9xp3/1yK0+epkkdGiDgjm2ffVeRcRrN9fc4tIF/4NtIOhPfn9JJSMmu8v/eaBUGcok2S5srLttnzHXmUCfwdtF/4yM82Q8q8wbMQYD+VMh+wWS2iNXYwejQTHxAVgEO22PauxDBry3M3AD1heIE8iapcGtD1sXS8bwsEYuC16+9607cfUHnoCBhKXfuzd+mpWjeTDk2tcVGZ9crYNi8WyVLV//pgwyxiCBET0WKJQYK1DWGXTJhGxkXOOO+pBu90EQVD5uI85yGKOEV8I0EehPbdTmqpDK6SpuiiVjeHouRcbLj164E1c/9wR84sqnPgtevjvydZbv/t0t/fKhq/5/nJQDbUBbCLRYCXPEkAXz4zh1wf+f9T4FRy5IuG4YNE3rcTl97hsZzx8Z0zn7UrJjJDxIWNoMEDTejjwZn731xySJntr6nSfi4x997lYePpfPzUxRINlDWzkigey3aDIe3+CaBmQlBg33h5HxPJJxvXqkrxUCHCepfczoIUbaEugbRca5+WKcnli69UQmYuWj0kDImnnj6ywzxoxYW6ZA0vYYBca0oMeMQcqOw7Hx3B+0tw03icgd9YPxXedUX+jqDlrXB8fuMHn3vQ8yDv0aLyWCfvmbOuSuOtijycoAf2eezJfSvlE/xchgGhthP6Ct2C+WBcb1nbzPQP2KpCZhhZ4H2+Gqiy3X4v70tiE3nZP2EVY+4Oog3j7dD7q80q/IofVhu6mtm/QTZU8bw1xXvj/10raVnX8lSfbYxY98ZhzNihuQMbTFFef7SLr4P+5rS6zXR4nB4QNfuOuraZPK4IEbQDIaOHqeFPjRICLLzKR6+F+0fg9L20K/PFHUWRzqQksgHm4XaldKtLQe3YZVK6l1xvQKhdbj29xG2A9+Ht3nuoO+MKDSc/g2bwf7ixjIkTG1CZ+mmCQpuOFX31ADPXjbGn2hHiQF0tJHalsuG/ulKZvaukk/UfYck3GatHEqIlVqyJg7SkvCeB6v3+V+7XD57ramrVTgBJCMhn7drgf8Rp05DTY2QzDFAtQHA2TP/q51XRd0g2wQgzFav2cyfjq65296+rvqZB0zZI6YxUd1Iw9zwDmSDOwfEp5ECK1tRPSQ5FMc1FnipL6c9DiJV/6qbBKzB7aDpC2SK/Hnnrd9+soI9fWyYLkcWfkQVgeNr9QkQu4iRrBf3gZKW9ftDl2unyHO2FUEbbfN9tSZsXaa4sytPyQz6BQJ4zHNNAU3ApKstuT1u9wPTmxx+aUh4yrzkJ8OSgWepq+5+hTUUuYjtUGzIYlU0G6+X5FlWiCXyuEZnj+umK+n9pXISdKf/5e1UUOCAD0ku0C7aJsDAVOoR4qMaX9FGcRmKTmH7Ts5kFMboV6SfVP9oTK027R/qYEPcZvDGLQbdCyNjLM38L64U62kWL/hVnb+KRLy8t2/uZX7/xCPIRFDqbmBx52kJWE8j9fvcj84UQicJu1g9sEvk1B+KnihnVh9rQ6hvrAuFUEtBXZMPiVRiXRov1IBBfLr9ievPmhQSkRNdUuRBT0vtZ20kYKMtfqmbIf9kEgU5NN5dzhHsj3aUyJO2n+tvlgHfcpxEvsf6zUtqV4p7Gj7Ce0HHUsj49zStpXHL93xK595Qj723e+50z/fcX5p26OXbvm3z9ypn91xx9/b8OuQVx7+O0nImqVt3FlIstqS1+9yPzixZzLmJM37EPSYEkxJoiGXtV1nxjxweb9gP0ZOKWLicrQBzOvR/aSNNGQ8fpRZIlLaDmxjW5xssM9ApKlfqg0kqdQ5oAO2lTsPdcfzeeIQsNkyRkI7Clt7/QNuJwdxlEPLoOOU8UNlSdtTT1OoHvq4O3KwtE162AP/W/zhL7JP4Wke+uCd05Iwnsfrd7kfnNgCaJQoeIYX5GdAUgeYfBMF+wxtwVNa2/6dAEP/tBbOy0IQ8fahnlY2tuHrkJuGUnam7VclS7751kQvamNOcFRvbK+xjRQEEfTN+BJ0QDLm/qCEJ5ExvAsFblamXnYT9MhgVnse2i9m4+DrTHsoJ1fG2uH1mugfdFT4hrej2Z+ajEF4bt4YphggQz71xZ3qSbyLV9w7ax+6Y+vX3eJnQ3fm9tfJjBjqTzNfDLohyWpLjbGmPad2eH70jbWRAlcAiTB9QOXVeshkXC2jmrxrLgUzD35oIyeb6oHbsWwWj4d+KcAfs08XMlAfKFvZSEHGqK9k99h/3B9IxtpslfYPt7X+RH1zV2VBbsQGdXvTxwi2AWUMD/Qcf17IjOWYoOc37Sutq9luRcYlvSiId1ZLwnger9/lPgYHBJOUAWraSskIIGlBxigDdIQg3h9VKyu2t+DOeJVFxTIx0L8Opjyosb/zRsatbRQhIrQHlLSNGPny/48EGZM3zU0bI9SObxwZQ+dLeoUmdQaSrLakdbvepsDQZhBcBwxSaf40HJuSjCnRpy7PdWSsz2yQjGMZXOiXKjOWX8fZTIY81QG+6MRGDch4WpxQXWN25diS9rWDa7CvcnqBxgIlXcSCTwYU/pZ0pv/RdlKY1vYTZIe+dqAf1RW3W2XGIMReLp9/DJY6EsBGQYiOSJUTQBUIN4BEOEblxoAX6mdAliTjzPwv1QO3Y/rg8aCXItCRLDkB1W3kBwlqZx7AQZdWNoqTPfa51ld/hYF1sYzZAo9rSq0eTdtKnY82niZGeJ/eSDIGI9hnl/KETANdym45mOh+IMHIWlsEMb9cpTJgOxZgoX6CaCb0F0ifgl+b1YV+CfJAX9RLE5xBFusDBj/I4ATL7UPb4+fisVTfmtiIy0ddqIymg3aQ0WBFBtbhZQwrh84jg3AOf1A3ZUfa96Yxcliv/MAHdbT9zOnO259mv3VmjI0CIXfx+aWj/EFSSgzVU3LpLy0AwdFHYmMBHAAeITX0UQx4oX4kA630qG/sxYIO5auIL9w4iWesqBfISwUnbVcisEDUkcEM7EN9I+mPusT00NhoYsBK+KrWN/3UG/qVl9gXfpXAz0vto01j/aV10TZgt9SHEFCv6jwZ+9hu8Dl5ko+2mdvW2hrba9LP1ICc0yt1vDMyhkZgyqLNHDLUPerfvQPn02ViyZfLkxf9xIgY7I7BECNJBEAMeDRI+CCBj0JDYMOnb3yQKIgEzoOXw2yTx7K9ruMvXcBxf07iXR2hX/CZoFfV49DwKarQHxis4CX84THb/NOHvh9kWRcELX5RAvqOj0Vze3dlo9AnGBhIX7BPUE5miIeXoXmd8ZNdgi9Q11mRMSU+71P+ODT3k6DzRP8jMcKX4vkby5GXy4M8la1DUpCfFgry2NUX1b3NdqdkjIrAKgvNsjd8yg7O1X5eCduY5xIJDgkpV+ZG4gASBcihLSkLQBmSLhWBnavBnWjHB2bmBTfYBic87lPUyfefBSjKwDJnIz4IYj0sq/clpC9tUR+sQ0utjZAoaV3Y5hm9FiPSAIxtzIqMwW9av2s/86TtP9pRwhLaAc/Bkto6lqBwLMI++j+HNamu5r9eyBgbhoc14Om5s18+cctfPXMrD577H2zDf3Bsmgc6UP68l+EbXeyNWPjBSMzSAERAFtIndMAGASQJkoTzcsATX9dIPlypbcfrhN96E/omfUJH8mVob5yJQIDCJ3YwqKDUvJoRZfsX1hx6tWj9Ih6a4UnB7fsFD8LwV3A2tJFENJQggr6YUXIb4gdr4aVO5KVJod4M54yxTSwDpslVHQwKTV5zirKgDPKYDSrfw9XaZvQKA+rnbJ2LiQldSv86NFXWtvM38prYCMiBzhlX2Vd9md5E1jyey8l4HvtgOncbE0fZnr1mxkfZcLPsG5ISZoTaS71Z6thHW9jvvi4L+9DZZBr5TosBI+PT8wEevMmEhMxvtE0LgJLrGRnPBzZLxtA86WZkPCdkPE+g6kpXI2Mj466wNA9yjIyNjMNSsdIAa2RsZFwaJvvUx8jYyNjI2DBQLAb6JL/SZBsZWyAWG4iWGVtmXBph9qmPkbGRcbFk3CfwTbYRfWkYMDI2MjYyNgwYBgrAgJFxAU4obYQ2fSxrNAzMHgNGxkbGlhUZBgwDBWDAyLgAJ1gWMvssxGxuNi8NA0bGRsaWFRkGDAMFYMDIuAAnlDZCmz6WNRoGZo8BI2MjY8uKDAOGgQIwIJLx6vnLDg7Yz2xgGDAMGAZmgwHg3bePL/nf/wHatSzlmqxFpAAAAABJRU5ErkJggg==;" parent="1" vertex="1">
          <mxGeometry x="-893.9985714285713" y="103.9971428571431" width="355" height="59" as="geometry" />
        </mxCell>
        <mxCell id="Npa9Y6lDgFgyrHnARazE-124" style="edgeStyle=orthogonalEdgeStyle;rounded=0;orthogonalLoop=1;jettySize=auto;html=1;exitX=0.5;exitY=1;exitDx=0;exitDy=0;entryX=0.25;entryY=0;entryDx=0;entryDy=0;" parent="1" source="Npa9Y6lDgFgyrHnARazE-108" target="UeKgmQtvJm2V4L9KuCcI-30" edge="1">
          <mxGeometry relative="1" as="geometry" />
        </mxCell>
        <mxCell id="Npa9Y6lDgFgyrHnARazE-108" value="" style="shape=image;verticalLabelPosition=bottom;labelBackgroundColor=default;verticalAlign=top;aspect=fixed;imageAspect=0;image=data:image/png,iVBORw0KGgoAAAANSUhEUgAAAWUAAAA+CAYAAADzuwo7AAAOWklEQVR4Ae1d624dtxH24wSRrEiWrEsgWVLSWFEcJT5WmrS1igJNhdNLXMg/mrqWZctoXQRFG9Xoadq6dh9A0EO4P/Ue6nOwmF0Nd5Ymudxd7hHP0ffjgLtnySFn5puPs9zblbcm5xR+sAEwAAwAA2lg4Ip0xPLapsIPNgAGgAFgYPgYYC5+g5SXVm6q+Xffxw82AAaAAWBgSBgg3nWSMhHyO7Mr+MEGwAAwAAwMCQPXl94HKWPiwcQLDAADqWAApDyk2S8Vh2McIB9gIG0MgJRByjgtBQaAgYQwAFJOyBnIYNLOYOAf+GcYGAApg5SRJQEDwEBCGAApJ+SMYczC6APZHjCQNgZAyiBlZEnAADCQEAZAygk5AxlM2hkM/AP/DAMDIGWQMrIkYAAYSAgDIOWEnDGMWRh9INsDBtLGAEgZpIwsCRgABhLCwFBIefq922ru7q/V/FfP1MLXz9Xi4xfZj7bpPzpGdTCDpz2Dwz/wDzDQPQY6JeXZrR+rhd/8VS09/U/Qj+pSGzi+e8fDxrAxMJAmBjoh5emVTbWw96cgIrYRNrUlGQBNmqCBX+AXYKA7DEQn5Zmb31eL+981JmQmaZJBsuD87pwP28K2wEB6GIhKykSiS09etiZkJmaSBWJODzQIZPgEGOgOA9FImZYbYmTImpDP16FJJpYyugPAuATX1MyGOjreV//77yN1erDR+AwrlpzYdk11XLH1TF1e7+B+hrGz4x3Vm1lujDOfntFIuc0asknE5j7J9ilhHlveXlUfP1pTd/68rrb/sq4+frymVn90o5YMU2aX+1NbPXV00Fenx7nDiVjod/b6vjo97quj3Y3OANClXlL21G4/04n0OtmND+ZYpNVUzqjoJ33SZJtJ6XTQG2o89XZ31MmA4iGfeHWMHA83Rlj/5EmZ7pgwiTT2fuhdGcuf3VDb365bf6s7q0MFUhXoMzIelImYwWaWRNAnu80zwKqxdHlcEh3pddZBQMs+hp0py75T16+Nn6dmeurkdU6KhMejrfiTqzm+3m5fnZ73acaEuW/ze48SHiLzFmdPckwjQ8oht70tHr5Uc/1HauqTu2pi/ZZ6e+UDNfHBbTXV+4ma/dWhWjp85SV26kMax7V9az8n5NW7q2p67kb2o20i6k9+vx4kwyU75v9TWzslsJ0OdtTeVpl0p7Y21F6WQRfZQSxwxdSlSpapaxcBLYmxjY2ayBkl/ap8VXWcSanrTJn8sDcocH92fF+dHPRUz5gIKEYoi7YRbxNfhuqfdKZMD31UZcUL+9+pq7d+kBExkbHt9872TyvlhDxgcvubnJRnlop12On5PHu+820apCyDOISgcoAWGXUb0qkCXRfHOZApsDjria1DrABsImeU9OvCv7FlSh+0OUOUcmLhrfB1wmvK9DSej5QXDl+qq7e+yIj46uZnWVa88HCQtVl4+Hc198snKv//qVcO9UF9VQGA1pApKzbr8ZKG+f+w9yVQQghZjo8zh7rtpIxhb0t9Tw96OvuJnWmU+ymfcdTRua6ccv309atji4uqy8RHyxNtrj+UfdMcE9IOPLbY+JV9tL7QN3/vj14yvbb7u4yQJz/6Qi0+eWGvW7F0waRPfcnB27YpG06alFtc8Cqt6XWwLmuzZ9v/+AIYTyS83zbgzHHFCsC6clifUdHPtFtq+/Issm12W9eXIbYYCVKuWk/mZYu5e8/shBz4CDYRc8i68h0jU+YMObQMcUzTOhIkTWdaDQrLhRZ97Jywqb89usghLpScnd/N4dNB3g0i2xKR0t0ge8a6nk+Wzu7PbyFqM7FkV+CNO1R4PNK2VcEcSw7pnYp+2vds5/MLXHwxjCYNWgeWt3Fl+KBrFiV8+C8oa30tSYEeQwv8afmv+2qv4S1nPA7W3VbKDLyYWPM+MyyJC/ASTyy7afz6YoWPtc6UFw/+5SXbibWPskzZmSXXIGXqiwfuKpl8+Tjvh5bcrosyRhYgZUhg0Xg1YAY9JevZQCmBJnWVpGlrx/+52rtkyfp1A08SLvdvlnRnStV9yrHksI7SVhetn/Y9kbJxEVnaiskkG7txe5msJ/VhfanUvqsg5Sb4c9lT9h+yzbaQ+pjbMnbKpNxTJ4ZdpC1YNtsxZDx16wyRlP3kzUsUvjKElE0DhJIx1zPbx9wvnN/8diJJLOatZRowg3526xJlxfKODgpWBhyfbpv65cHaV0fZle7yOhxl0FXtpTw9HiOrlwErg0O25e2SvnRbII1LZFB51ltcpafgk0EUWw7LozIl/fRYzi+mEmnwGQ3ZkM6YmJhobb+YwAp7hvg3jJSb4S9GfEj/SOzYMMF1i3776mSwr84oS3ecDRZ2TvhCX+jyxfV7f/Bm1D4y5mMhyxdsaC6ZbENLbtdFqR3a4tRMAs1FyhR8rplcEqIPqC79Q9v7xlk6VvFkFAcM6eQicCnPScoBa/khctgusq7ph9KxIenH2PL5ngmV6jjtJO5FtuGDZZg6k11CxuDDD7fPSFFMvGzzuqX0g00Xlicx5kpWuK4eY4VfuX6TsnWmXHmh78sH+Z0XG9tq8eCfVmJeePg3tfjoH9ZjTMhUhlzoM40QSsZcz2wfc187tAUp03h0YBjAYPkUcC4C87UP1VX3bzmFZRky+Gxj4bH6gkAGlY0EuC8qZX9mAMaS4+rvovWjcQXZUyxruCZtkuXzr+8Yj6Ep/rj9RZKyiR3p85Kdjdgz67XZb03KVbfELT59pSY3P8+IeeJ7n6rZnx+o7Ja4w1dq4bfP1bWfPVCT721l9zEvPvm3l5hDbokzjcFkG1qa7WPuxwKdDgwDGFq+8b+pQ2g9sx3v6/49pKzrOCYgH4lyP1zHR9y6rufdF7HkcF9UpqQfjUf71GFvqhO6ZqtlWXCk9bb43tdO2s5VT//v0UHKqdqWk7GPbDlTDsGZHqPFNlXjCT3empSDHh55OFB0S5ztoRH+b/qHv6h8qi/k4RFT8VAy5npm+5j72qEtQCeBZmaPWn4FYAoQ+q9wU1/0mOpe9t6BvjoRD39QNmT2z7aSwe+uU1yYc2VGoeOkfqVdzACMJSdV/WhcIb6XfrFl96yfT1YMUnb5Q/fbIj5YByp9mCjVO1/acuFQ1tVjrIgx2abudmtSpg6r1pVp6YEy5mtfPsif7FvbVG+vfqgmNu6o6c/76vr9b7wZMrVvsp5MY2OyDS3rGrBO/QKMcS70meSjAWPJYuQ4i3HYSdl28YxI2Pw5CTdg/ZbGw+N1ne7ycd+pNuvlC8BYcnRfieknbemz1dBIuSH+Clw2jw/2EZU+TJTqjSMpp/RCImls2g4lY65nto+5z6fRLhIK6csnQ5NPw6Cg/lkGjZFO504H+Z0Ye7v03oH8bXW+bIlk8HGTxH37NoLnsfiIhm3mC8BYcriv1PSTfvPZKnlSFmvevkye/VBV+jAh2xaTgT1JkXXrYEm2q7MdJVOmDlN6dac0AJNtaCnbxt6WIPEFj69fDQrLKZ4+1pCUJeGbWbgcE5OSjUilDB8Jm8ds63lan4BTRWlbc+yx5JANUtSPxhWiY/KkLO78aBofEqc+TJTqjWOmTAriJffFC5Ckw81tDh4ipbrZgAwqGyGybNsxOQ5XZqDbV5Cgj5S1DMukIcfA25LkTDItxll9Oitt05UcGnOK+pXG5fGdtJEPe1pHi6wg3zdMCqQeTeKDMcXlpSdlMgQ+B1VNzDIwQi4sMMCo1AFhPIzBdXQwNQwK3d4SjNxHafxGPzIIqiaGQp644Gf06yNsbs8lj52C+Q1SFqfF5jFuz6VXjrjDIyX9aOw8bl+GKX2XKinLMdaND/YhlxKPPr8Xk/+YLV+wIYiYY3wWapw/nCrJJn/qzv+ycAJX+Yms8pN2bHsdmAZZ8nEuXSDU7R1Zbj6O4uk5k5hYbt0sx9euaiIinaQ9baRMdWLI8Y2TbWsrfe1ijIv61L4zJjY5Hkl4qZIyjVfaKyNmx9N1UjfbtiRlE6uyPvcXMgmE2FnKbrIdbU1Zdk5LGW3WmKntuH+Xj4AgXwTjfcm9eGGMb8bXgGlIypLczMmCH8GltV/6LA+Rnwn0gmCqMw6JF0kWpszSmM6/vsKPWVPQ8ZcpaLz8CLjNRjHkpKyf9v0YkDJhwxUf7HvGT3bx2fGSe6qj7UJnl44v91wKUmaD0V0ZIbfL8VN7VDf0s0/cxyiXTHREcCE/36lpCYANSVnKsI0nI+Td5QLooh9JrDZSrPKTj/DMADXHlk0gYmnB1X8bOanrp8lnTEiZ8FI3Pmx+l5OxxI08U7hUpMyBSA990NN48189UwtfP1eLj19kP9qm/+hYkwdDWP6ol/o7YsbbqbIvdQyKlwgRqIiAXN9G04EpyNJmmyoQWl9tmX2uKl9msfWj/3Osd9vGIf+TwWMPLttrSIsXFMlTVVt77iv7xNYbrzOtlpO6fnp8Y0TK7DNXfFA80MeGTwY7ziyYZNjI/dKTMhsXZfWFQJuN8rXc4i1fecZqX1e2tcd/zewOu8FuF4GBTtaUL0KRy9AnZ0N8Gma+tPwy2AA6gijHHQMg5dnRAjlf2GJiNi/IjTtgod9o4RX+qu8vkPKIkTJAXh/ksBlsNkoYACmDlCs/sTVKgMZYQcCjjgGQMkgZpAwMAAMJYQCknJAzRn2Gx/iRpQID7TEAUgYpI0sCBoCBhDAAUk7IGcgy2mcZsCFsOOoYACmDlJElAQPAQEIYACkn5IxRn+ExfmSpwEB7DICUQcrIkoABYCAhDICUE3IGsoz2WQZsCBuOOgZAyiBlZEnAADCQEAZAygk5Y9RneIwfWSow0B4DXlJeWrmpqAJ+sAEwAAwAA8PBAPHuW5Nz2e8Kb6DMDQI7wA7AADBwkRgAKZ/PThfpBPQNEgAGgAHGAEgZpKxPmxgUKEEQwMDFYeD/NCFk9vTqG1EAAAAASUVORK5CYII=;" parent="1" vertex="1">
          <mxGeometry x="-1251.9957142857138" y="-490.99571428571426" width="357" height="62" as="geometry" />
        </mxCell>
        <mxCell id="Npa9Y6lDgFgyrHnARazE-129" style="edgeStyle=orthogonalEdgeStyle;rounded=0;orthogonalLoop=1;jettySize=auto;html=1;exitX=0;exitY=0.5;exitDx=0;exitDy=0;entryX=1;entryY=0.25;entryDx=0;entryDy=0;" parent="1" source="Npa9Y6lDgFgyrHnARazE-109" target="UeKgmQtvJm2V4L9KuCcI-30" edge="1">
          <mxGeometry relative="1" as="geometry" />
        </mxCell>
        <mxCell id="Npa9Y6lDgFgyrHnARazE-109" value="" style="shape=image;verticalLabelPosition=bottom;labelBackgroundColor=default;verticalAlign=top;aspect=fixed;imageAspect=0;image=data:image/png,iVBORw0KGgoAAAANSUhEUgAAATcAAAA6CAYAAADVyx5YAAANoUlEQVR4Ae1dbW/cxhHOzykiW5FsWXcqZEtKmqiKo8Rn5aWtVRRoeri+xIX0IYljWbaM1kVQNHGNXtPWtfsDBP0I96P+h/o7tpjlzXI42jeSy8uRmg/Ekrzd2dnZZx7OvpD32g8uLSk5xAaCAcFA1zDwGm3Q6vqWkkNsIBgQDHQBA+fIbeX6O2r5h2/JITYQDAgGWosB4LFz5AbE9sbV63KIDQQDgoHWYuDayltCbkLk8iATDHQPA0Ju8mRu7ZNZCKl7hJSyT4XchNyE3AQDncSAkJsAu5PAThkBiKx2RohCbkJuQm6CgU5iQMhNgN1JYEu01c5oK2W/CbkJuQm5CQY6iQEhNwF2J4GdMgIQWe2MAoXchNyE3AQDncSAkJsAu5PAlmirndFWyn4TchNyE3ITDHQSA42S28Kbt9TSnd+r5c+eqN4Xz1T/4XN9wDncg98gT0q2FlnyxBYMCAYAA42Q29Xtn6ve539VK4//E3VAXigjoBRQCgYEA6kwkJTcFq5vqd7en6MIzUZ8UBZkpGqcyBFHEQxcXAwkI7fFdz5S/YPvKhMbkh3IAFkCyosLSul76fsUGEhCbkBGK49e1CY2JDiQJQQnAE8BcJFxcXFUm9xgGJkiYjPENpmnA5kyRL24wIwlpfnFTfX0+ED9778P1OnhZuWIP5WcWL0lX4btweG+7ruz4101WFyt3H82e9YmtzpzbJzQ+DXItinture6s6bee7Cubv9lQ+18s6Hee7iu1n52o5QMl+wm7s9vD9TTw5E6Pc46GBwUjrNX++r0eKSeDjeTd3gT7fDJnB+OdJugXSfDtOCFelORUkjO/PauOn2VkSj2E03PjvfV6XhX7W2nb6PPvlV/Gwx31ckYcFZsk27HFLE3s+QGK5yckFJfx66irn54Q+18u2E91nbXZorgNKmNi4RGHYWeA9GdDKtHJFXBn6IcJQxo09l4kLwfaB1NRm4hcqN9djoezOxDaTAceUm60A5LJDyABzKQouW3KpiZWXKL2e7RP3qhlkYP1Pz7d9Tcxk31+vW31dzbt9T84Bfq6u+O1MrRSy9BQh0xRrt5kBHb2p01tbB0Qx9wDoT3/h82omTE1FM3D3eS7GlfJK/57U21pyO6/KmaCkx19S9TnrcViPpp4shm2uTmagM4/QmJwJsg8jK253nBTnvjHE8QoZ0cDtSA9QdgD6I6G4GlsjXVbSbJDTbfhqK03sF36vLNn2hCA1KzHW/s/DIoJ2aj762vM3JbXMnnqRaWs2ju9rezQW7U2V1OQjs+A2Qe4bWN4HLg7ptoIXUbUjlcSA72XajfKIE0MQyn+Ig9p20D/auOBKicVP2YY2SG5tzg7QIfufWOXqjLNz/RhHZ560MdpfXuj3WZ3v2/q6XfPlLZ/cdeOVAH1BXqSJhjgyiN58OhKr8/7WsKjJCDcN3QYcqW43KmeU3be3o4MFFD6onjYj3FCLhMe0NyYsltfnGgTiZzc7MSvSGBwJCzDuGGbFTG3pgXdUuNC5BfeUFh+e6fvKR0ZfiVJrZL736i+o+e2/MGhqRInlAXGsOVQnQ20+RWY2J9Fh3G1Q94HxcSkJDxuq6DoXxMUzlcSE48ueWrt004LLY7NkW9we51o62QjWJ1ovlmktxC8204HF26+8RObJGvZgHBxcy73WaRG0ZssSk1eOpzCoqqgDcgsMxbmd8mE/ZQ3x5M+pLVvbPJCpivbXT1lpbVjnE8KrUSaKLNyRJ/HYLWK3tkPovqQ20bct46cpAkkKx9duRtx7xI8GevRmpvcTVb6SULSy79cQGKr2ziijrKt6VGl0mdtjyhe4gvsLvroBFhmXai7Kp+4dO9cuTWP/yXl7Tm1t/VkZszaitBblCXrxHwG5IY5sPr2BTLNZGiY2inrLjKRGVQIIG+BiDjgaL5bEB0OhAZTtnK4T1XeWo3SmQ0f1lHo8SF9fMU5o9C+9xSyEG7hsiN1sWHpUWnhwWIfIIf2kVtBfYEWfCQ4m3m1/DgArKkfZCVz4fIXDbP67tGfPF66TXFZJl2ouyWkpufBHHo6UtjyI13TiypYT5ePuV13tnVVwt9TmMAMh7p+R4N9u18/mmwvWscyeWcmpAgutMraHlZsANEDuiIrvLUXkYfFmUiQYBTUGegZfG80F6YBAe9iANnUZifHLTuZJMv6F5ZzmSfW6j9tI2cUHIcjNTJ+EDpCI6tVmL7IcWHAdhLby8hec2KOs7vWQgur6867qg+tE942wr5JlMw0L5QOw1WZmkTb+yw9NrdP3ojPB+p4W8xw1JqXDhH0opNefmU16YDawwNKLB4RIDywQlcT0Cf08W0Nba8T8/CbwEwo2P6iJDK0wRgiYqTyYkgN6oPDj2pbakuQZIszNEWHzYFmWRzMSccxIVNFyoj9py2j9dFZZRpp9ExgAcqP/a88rA0uKDw6b1spXRzR/UP/2kluN79v6n+g39Yf0NigzRmQYE3OJbUMB8vn/LadGANcgN98EnOCQzl+4jAVz62raZ+z2ZcSoK26Ax19Tk3dSJO5FxXWh93uFRyoE6sx6Y31KM3x06GmZDH1nbq9FxX2q4yekO53KbF4anrPq2rzDnVy6s/IWZfvoLus0Ruoa0g/ccv1aWtjzXBzf3oA3X114dKbwU5eql6Xz5TV351T116c1vvg+s/+reX4GK2gvBOQtKKTXn5lNepQGbIhQHByGf3eRti8/FyeG3q95CbyeMgciQJV6QFdWEeG5GgLpj6HC6VHKoT6O07fDojufny0LpC+YwNSPRGSdX0t6MvsHxs6rM1lRHbTihjdAxgl8qPPa8cuUVt4r0/VrAVxLZ5F+8t/PQ3wbcUYjbx8gbHkhrm4+VTXpsOrAEyCiwezRj5AYDkoCs+4XlboS7Ycb+n3z8c6Z33dPWU14/l6UKCO0++AOAaLsXqCfVSu/AoIZUcXQ8hEBu5wfvBsLhB5wXRLpjG6hObz8gl84rUBgYXNXCHdUDqs3UhH5lzsy100LxGxwB2aZnY88rkBhWE5t1gSAkR3JVP72VvKqxvqdfXfqzmNm+rhY9H6tr+196IDcpXmW8D3ZC0YtNYg1XJl4O1+sSuD1gGIJ6ICvTO9bCTm22S3ubITuIiwxEaQXCbob4g25YPf+fDby5Ht8nh2PBbKjm6nog5N5t+9F7I/pi3jN5aN4cN8vqq4w518tVD8+h8XSC3WXpxnhs4ltQwHy+f8hqHRy5njqnLJ8M4Qw1yQxmgIwyHTsfZyuneEN4/zCISM+R01IO/2wjRdc9GlKiLkFvcK0muB58PMzGY43lc9ZzL1wVyg0bN0iePqJGRtGJTWjb1OQVFjMPa6jcObxlimN8cpIPy8id5MXKjTkCHNVgOUyQvGyFRGS4is923zSuZ9kQMVahtue6p5ED7sX02fdE+odRlf17O6G3pa54XrqkNaCRcmCaIsKVNNr1H6+G2LuTrCrnJxyrzF/VpB/NzBCw4OAUgz2e7LoDUQmAo20Y6VJ7LuUz5gAP4yM3IiHVIMofFHSXXMzycorZpSg7YcJrkVrYuX37slyq4o9jRNnAMf8/l6wq5QcPkM+NhgqNO6JpI5yDBa0MqbFMs/o4AbpLcCvozgqVP9JAOqHOhDCNVdFZwSE5YWB5TbLstbyo5UBfKmkbk5rM1tpumaAPbqKAgK/LBQ2XTc9pnvn7JH07FEQKVhec+3TFP1bTWggKtFAguxefGu/wHMegg4IjZWwTnX5mhNgUw0ddvXIAyAGGkQ2XBuQt0prwD/Jke+dsAnMBQbtnowFcuROi6PST6s5Eb5EklB/tuGuQGemOfZDaN28TrGhFQO+sHK3nTAeqKPSi5cQxQGVhfzEMc22kjZiqzynkycoPKYYhaZw4Oynb9fxOg4+m2Cu/HKsmL7y5iA7sbgFQkN3RcG+niq1fg1PBZap2H1ZMTSPhJTUFaiCqYzIJOelNsvs0CnAy/KAsPCXw1zGaj1HKmRW6USDRxw9d9CSnpBw580BRfv2L2o3aGcxfu+NYVvXjk+FhlAWswinB8IbqT5IYGhVXUmG0i+BYC5I39nDjW0eYUCQNAG3OEnmp1yY2C1qaPJrbhqpVEKUHZyCXUTz5i5A7JdcteGM/3zbnqTyEHSXJa5AZ20wQX8eJ87GfNy+LOZk+0A+8LGjV2mtwQ0LD5Ft4uWP7siep98Uz1Hz7XB5zDPfitygZdlN/21HyPnn0dAv9sBCMSABI4susT3SnIDWxp/SQQ+dMTWz3mnmM+MNRH1FnszmT7fFP+AjyNcGzlsX79ovm5z0DFy0E9p0luqLvBCYnkQY+qf0hj5DHcAc70ZuTxrjMqA51sJHnhyA07R9L4eQ1qKz30IE/uLIJyz7/QsnJezeZit+7YLemcmwCjGWBgdIRDgdhhiPRHM/0hdm2HXYXcSqwWfZ+gxgl0JLiY1dbvU1+pux0E0OV+EnJrCbl1GYTSNiHCJjAg5CbkFr3PqQkAikwhtqYwIOQm5CbkJhjoJAaE3ATYnQR2U9GAyG1PpCnkJuQm5CYY6CQGhNwE2J0EtkRY7YmwmuorITchNyE3wUAnMSDkJsDuJLCbigZEbnsiQiE3ITchN8FAJzEg5CbA7iSwJcJqT4TVVF8JuQm5CbkJBjqJASE3AXYngd1UNCBy2xMRArn9H/mlPCzQfsCDAAAAAElFTkSuQmCC;" parent="1" vertex="1">
          <mxGeometry x="-327" y="-245.0042857142853" width="311" height="58" as="geometry" />
        </mxCell>
        <mxCell id="Npa9Y6lDgFgyrHnARazE-121" style="edgeStyle=orthogonalEdgeStyle;rounded=0;orthogonalLoop=1;jettySize=auto;html=1;exitX=0.5;exitY=1;exitDx=0;exitDy=0;entryX=0;entryY=0.5;entryDx=0;entryDy=0;" parent="1" source="Npa9Y6lDgFgyrHnARazE-110" target="UeKgmQtvJm2V4L9KuCcI-36" edge="1">
          <mxGeometry relative="1" as="geometry" />
        </mxCell>
        <mxCell id="Npa9Y6lDgFgyrHnARazE-110" value="" style="shape=image;verticalLabelPosition=bottom;labelBackgroundColor=default;verticalAlign=top;aspect=fixed;imageAspect=0;image=data:image/png,iVBORw0KGgoAAAANSUhEUgAAATgAAAA+CAYAAAC/UQfDAAANw0lEQVR4Ae1dbW8ctxH2zwkiWZFsWXcKJEtKGiuKo8Rn5aWtVRRoKlxf4uL8oalrWbaM1kVQJFGMXtPWtfsDBP0I96P+h/o7WAz3hjs7Irmze7vy7d58OHBfyOHM8OHD2SWXd+mN2UWjP/WBYkAx0EYMXGqjUWqTdlbFgGIAMKAEpxGsRvCKgdZiwBLcyvqW0Z/6QDGgGGgyBnxRuyO45dUbZuntd/WnPlAMKAYahwHgryjBAbm9dXVVf+oDxYBioHEYuLb8rhKcErgOYIqBdmJACU5H5caNykpG7SSjOtpVCU4JTglOMdBaDCjBKbhbC+46IgKV2azoUQlOCU4JTjHQWgwowSm4WwtujbaaFW3V0V5KcEpwSnCKgdZiQAlOwd1acNcREajMZkWFSnBKcEpwioHWYkAJTsHdWnBrtNWsaKuO9lKCU4JTglMMtBYDF0Zw8+/cMot3fmeWvnxqOl89M91Hz+0PjuEa3IM8dbC4ytSRXDEwnRioneCubv/MdH7/vVl+8h/RD/JCGQXkdAJS213bvUoM1EZw86tbpjP4q4jUfOQHZUFGlcaqLO08ioHpwkAtBLdw41PT3f+hNLkh4YEMkKWgnC5Qantre1eFgcoJDghp+fGLsckNSQ5kKckp4KsCvMqZLixVSnDwSFlF5ObIbfTeDmTq4+p0AfN1E9HcwqY5Ot43//vvQ3N6sKlPETXNNPcO7lkfnx3vmt7CSuV+rpTgxnnnxkmNn4PsIqBf2VkzHz5cN7e/2TA7326YDx+tm7WfXi8ko0h94+ad2+6Zo4O+OT1OGhw6FvzOXt0zp8d9c7S3WQsAxtXbV35urz/SvW8GQtDOLfTMyauEUE72qge6T8/YtbYTXG9v15wMAVuJzx3eji8Wb40hOJj55KRU9bl0dnXlk+tm57sN729td22iSM4S2zBLagg2ngLZnexNfjShBCeLtnswqAHJXGCE2Nvrm9PRQMLxxc99elWtc2MITrIUpHv4wiz2H5q5j+6YmY2b5s3V98zMe7fMXO/n5upvD83y4csoSUIdsVEX793cT8ht7c6amV+8bn9wDKT30Z82RDJQVp3p3PZuBmynw10z2M4S2Nz2phnYyC4daX3Aq1PPorKV4PIJ7qIjRKhvMEwxdHZ8z5wc9ExvOxstA94guvMRbx06N4LgYIFuXrTW2f/BXL75Y0tqQGy+31s7v8iVI1kMfOvrhOAWllOgzS8lUd3t7yaD4Ci5QWR2xIDGSSUBaBrpTTLJKcGluOPtiOd1kAXK5imta5ynACqnKvw1guDgK4QYwXUOX5jLNz+3pHZ56xMbrXUeDG2ZzoO/m8XfPDbJ9SdROVAH1MUbkJ/DOzeI1s5dHz228usXfU6BIiE3qh+OwkXLURl1HyvBTRbBIYnAI+g47zcpbqeK4Jbu/iVKTFf2/mjJbfaDz0338XN/3pzHUyRQqCuvg0KUNtEEN3oJXwZw9GX82bCX64s8X9VxXwlucgiOPimMS0pTS3B579/w0XTx7lM/uQk/4wKSk7yHu80iuNCEQ+h6HZ0eZVKQlJ0axxHZF8W5eyPyg/oG8CKbvFg+G83Kok6+lM7q0rJAyjCrO4g8UtdBcM6u0XICsMu+MCezgOCP5D1m9r2Szz64ZmcS2aw12kbbKUQMZXyEdvAX+vQ8FGWF9c2+t6X2phG/fEablrd+Gi3loDryY6ozb3/rSzKRRv2J/ijbF7iu/LySZSLdg39FiWtm/QMbwQWjtwIEB3VxI/g5Ehdex3NpiuXqSKsYUakMCizQ1wFm2DM0HwcknFOgUVtplOgrh9eC5WtYJuLssgSXrlFDXWgKRMf9krUvXh5kwWx1bB1cWR+hHVRffsx1x0GK56PnvragOvruU5/EjovqnCW4njkhgxDoTHVB2S0huDgR4mNoLJUQHG8sKbFhPl6+yvO08fMnFkL10uiCP6Y6wAz7dl0ZRGt0Zra3vesA54sAoU7bMSDKs7Ns2egAohYEbLB8zQR3NNy36wPtLCBZZwcRDkabQd3IAl5LhGAjk4H2IYHQDoltMraPiB4++VgPpGkUNpr5HOnLie8cMbp2KI81qgfFXUznFON9c2LbKhzxO7xO8kJf6SPqtbt/jkZ6MWLDe5JHVNoocIzEJU15+SrPXYO+Kv/IQIEWIjjonKFRkUZ2MaCG7M4rTwFe1UJf9Ju1KzLrTKMW7huwB3UDOZwQ0F7qX8hXi4+EBCfRF31zxjAVuo52Fk2pX2I+oTqHBhqs2+k4yQSXO8nwxf1kBnVzx3QP/ukluc6Dv5nuw3947yG5QSqZZEDnYSolNsyH5epIXYMyMBaty43qDBgoP9aBoa5QeakerrxnogMBzjtcTDYlJh/xULtinQvqSOvPRi60g/rIj+qXR+I0b+g46iMBwUn1DfkOfVakHUK2wHWqT6wN0P+SwcHpyHAc06PIvUreweUtE+k+eWlmtz6zJDfzo4/N1V8dGLtM5PCl6fzhmbnyy/tm9p1tu06u+/jfUZKTLBPhDkDikqa8fJXnrkFrJrhQ9Ia2OD1KAivaed2jkTxKDXXSc/oK/BaShaSVF1VAndLOjPr50qiPJAQ3Wggu0RfrosTj2ljgM5/+/JrUJ0hwEr2djiVxyHXk55UQnGih74OhgWUivgW+eG3+J7/O/ZpBstCXGyklNszHy1d57hp0DNBRoPFIxMnPAUwKwjgJQV3wec7AfrvYNyfwrSKdkb3gCC6PuKGtqH9oh5faHJPhw0IpH0kIDgeKnLYEnZDgKB4cFsbAGrU35FeaB46L+NnpKLCR1yM5r4TgoKK893DweAmR3JUv7idfNKxvmTfX3jczm7fN/Gd9c+3e19HIDcqXef8GuiFxSVOJ48rmSRs/+/hURF4MaA4wHuKhdaR6+AkuWZKQftoDjxu+H+1QKD9PNuajaSjqwjzOLkFHCPmnChmoD6Rj+UhAcKivz++ha7Q90nYojzVqb8ivNA8cp/X6sUXzo42SgYuWkx5XRnCT9LE9N15KbJiPl6/yHB+TAKC+d02SumIyHGDGIDiUATrCY8bpMJlRHezBt4vJria+iAF1LwJwVyZnNxHUSdIRQh2xChmoL8oq7aOLIDjyrXNZrKG9kIb8SvPYfBh5CiJH9KOkXXk9kvPKCA4qm6TtkqjxSFzSlJat+piCpGyjOlB4AOTulSQ4Sp708Y77QUZw8sgBI7jQextnlyiC82+9VExGeB1cJT4qQHBlcYI+tSQs8BtvY35OsRvDRpEBrkibcH0k55USnG54mf+JDjQKNmqZKC4DWg+JoWz6qOIDQgiErnxOh4gSXE40VkQfzOv08pA65sEUCYiTZWpzPvFSP/PO7HQZy0dhAnV2FIiEsAxPUdcyWOOypp7gwCG6ZXk+ydHOU3QK3xFLYC0YArpOgsvo7yFZ2hGk0YezyyMPcIV2STqqk8UICIkPZHDS4p2Z1sfz4r2YbUV8xOWjLlRG2UdMKqMo1lAPTGm7hnSGvOlA0qJ3cOgESIHkqti6vM1/OkM7W/K1Qfz7SQAXfFMKnTPWQV3nCxAFtlMIhK58IFJK9EgnH0JEivJjuqIu8E0p5OMRF96HFPVK8oU7Dq3XRwqO/AIDBNRF28anP+oSIgyJjyhZhHwIuqT6hr8GoH7yHVOfWJ0j3xH7yuM1qc5YX8g/KA9S50s2GNE84xxX+ohKFYHH1XHeyUHZtv8PAwCBLrmIbnhJlmbERk8HmJIERzs3J178TAuICLa7tmQTqQc7pyUJ9smYBfdoR1u47yMSiidn12iZiiVDsruxJRXYGHTkp1B0lbFvtEMyfqoFMnDHW7AdP9ni/s7IYBsPFPGRswnIlthC7c5GYMmOzqgv5LM643b3kbYIYY3KStokvOGlvY//oRDT2Q1Y4YEIbXQ+aBrBoQEwuypZQoJfK0Be6dbkWEeTU+wQ2Mnz0lDHRR84wETADnljoyzK8OliyW1vJR15I/XYEZ9EnT55eI2TCNqDKepk7WcDA8rANM9HvLNjOUwtsedMAqA+WIamUh9RoqTleeQpxUgsErRtTr4jpvWFjn1tItE5hi1sT0zRj3lthvmLprVFcFwRWKALXyEsffnUdL56ZrqPntsfHMM1uFdmES+vp6nnbq97tvMCbC0NkR1GEwBG6IChHYAdYCLEAz7KA6F3ax67pXryKC2tB+qK2ebbNtvXhq6+0UgPnR621aadE/+cx1eeX7NbwZ/bRir9mN2S86gtfB3d2gWLn/l2SwV95CMvTnBQF+jDt663WMA/JWKbBnB76XmoPUAe/OnRyXA3GFFaXTxESXXOw1ZGF4wImxrBUWP0OH8CIuQjC3DSoZMoIbvTR6hsG65zgmuDTWpD+f4g9d2FRXBShTRfvNGxo2PkcjrMbvfTVv+h3XU9yrTVb9NulxJcTX9oWyew8EU4khyfDKiz7tclWwkuPvC9rnaZ9HqV4BpIcJMOqjr0U4JTgiuDKyU4JbjcLeDLAKvqMkpwSnBlMKUEpwSnBKcYaAQGlOAUqK0FqkZwGsEpwSnBtZbgyoBbyygp6iOqkqKSomKgtRhQglNwtxbcGsFpBKcEpwSnBKcYaC0GlOAU3K0Ft0ZwGsEpwSnBKcEpBlqLASU4BXdrwa0RnEZwSnBKcEpwioHWYiCX4JZXbxjIpD/1gWJAMdA0DAB/vTG7eO53yXdRr513lPpEfaIYaB4G/g+KdSi93I533QAAAABJRU5ErkJggg==;" parent="1" vertex="1">
          <mxGeometry x="-1420.0042857142853" y="107.00285714285735" width="312" height="62" as="geometry" />
        </mxCell>
        <mxCell id="Npa9Y6lDgFgyrHnARazE-111" value="" style="shape=image;verticalLabelPosition=bottom;labelBackgroundColor=default;verticalAlign=top;aspect=fixed;imageAspect=0;image=data:image/png,iVBORw0KGgoAAAANSUhEUgAAASwAAAA8CAYAAADc3IdaAAAM7UlEQVR4Ae1d73IcRxH346QiWZFs2SdRkiUlxEJxFHxWSACLooqgOv7ElPwBMJYVywWhUhTEpDgCBJsHcOkhzEe9h3iOoXruerav3TM7uzN7tyv3h6vZ3Zvp6en59W96ZufmLr0xv2z0ozZQDCgGuoCBS1TJtc0dox+1gWJAMdAmDFCOeoWwVtdvmuvfekc/agPFgGJg5hgAPgoSFpDVW1fX9aM2UAwoBmaOgWur7yhhKSHrgKQY6AYGlLB01Jz5qKlk0Q2yaEM/KWEpYSlhKQY6gwElLAVrZ8DahhFedZhtNKiEpYSlhKUY6AwGlLAUrJ0Bq0Y3s41u2mB/JSwlLCUsxUBnMKCEpWDtDFjbMMKrDrON8pSwlLCUsBQDncGAEpaCtTNg1ehmttFNG+yvhKWEpYSlGOgMBqZGWItv3zbLd39lrn/6uen95iuz8tk39gPX8Ay+gzxtYHHVQUdyxUA7MdA4YV3d/ZHp/fqvZvXJf6I+kBfKKGDaCRjtF+2XWWKgMcJaXN8xvcM/RZGURGZQFmTM0jhatzqnYqBdGGiEsJZufs+sHH1dm6yQwEAGyFLQtAs02h/aH7PCQHbCAoJZffwsmayQtECWkpY6yKwcROttF/ayEhZM4XJEVo6sxuteIFOnh+0CThcduX983/zvv4/M+Yt9019a08i9gbejTds4K2GlrFlxkuL3ILuKk6ztbZj3H22aO3/eMnt/2TLvf7ZpNn54o5KMKvWl5l3Y7ZunxwNz9mLkVOBY1rle3jdnLwbm6cF2Z5xsYalvTl8eWf2xHTw9fzFu13F/au1q2plSMZBSvn+wb06HYNNJuzs7Twk/Tds4G2HBmz1OMrnvY98ern14w+x9uSV+NvY3WkValqiGkyTFnRvvz1/eN6cH263SX3KyGMLCNmEKpHy422zU07Qz9WHQAdI4nl4f9Q8G5qxkcHA2FvTKrXPTNs5GWDFbF1ZOnpnlwSOz8MFdM7d1y7y5/q6Ze/e2Wej/2Fz95YlZPXkeJD2oQ3IQ/uzW0YisNu5umMXlG/YD10BiH/x+K0oGl9nE/cLu/gTYzob75nB3EuwLu9vm0EZexcg5TYeo025KWKcHMgn1hXY1TchNOtPC0rZ5Oo5uptE/UN/hsMAERFKnEK0y0gf8QPQlEWkTOjdpY8BiFsKCDZ9l0VTv6Gtz+db3LUkBUUmft/Z+UionZnPp7S9GhLW0Wqz7LF4fRV13vmwHYVGyAkd9yoDGiWIE0CISm4ZTcB1i72MIi8oCh6JRgo/kaJk61006UxPO72sjrSuF5KmcXHhq0sZgjyyEBbvUQ4TVO3lmLt/62JLU5Z0PbTTVezi0ZXoP/26Wf/HYjJ4/CcqBOqAuX0fic1izgmgK7zHFaSLezyqlQIkhK6onjqpVy1EZTV9XJSzQB6bGuO51/nJgDhtYFG/SmWif5nJ+Xz9hO2Cql0LuTeiMujX1YiMLYV2/98cg0Vw5+J0lq/n3PjYrj7+R85ZMB5EQoS5fR+JziKJaTVgHA7cgXRVwlAzOh/1SW6BNpplSHau0b4HYpQmnb9KZmnB+qc9oZJ5qoyZ0btLGYI8shFW2foVTweV7n8tkFfmzHSCtmHWsOyzCwsgqNpWAkusZBUndUciBQphKuu/GZAb1HcJCMFmYPR+/dQy1ib61pGVhVC9bIK9NWGQdqMw29q0Ye6M60mtyDZC20dmmZFtDFdkoExe2pdRH2lXqwXYUEXb9KLSqzjiQYORrMUxeFFHiRNll/YftqZpmIayV438FiWhu8z0bYXmjqwqEBXWVNRKJCfPhfWyK5ZpIc4yQVAZ3BgeYYd/QfJIjUaDRtlLCkcrhs5jyXD9aj3Tt9BfIGPIjAaMOUurTy8n2EFYd2ShT0gOfcRvUqWfU9mLa7GujZFP+rKrOk4TVN6ds6wTVBWVfEMIKExtO+0JpDGHxDoolKszHy+e8Lzq/fKHdV68d4cag4dNCB5jhwK4JQTRF3zz2d/cd4HzrYJawIAqzb50mIxa71oR1e0mlcCzurL424XNKslLZIsIYvxUbr3VxEpDKOtt4CCtFNu0T6sDYLprWrScHdqgesToX9Q7M6fDI2EjL85KozMa0/jrXWSKs2CnhtXt/CEZiIaLC72KmhNwQSESxKS+f8951aMLCMgWaj7BgdPeNcpQUypxLantZeRqhScQhycRnVDYvi44DbePfYfmQfd13AmGlyqZ9ErJpSj1O/wTsoJ0graOzb5BDuU5HwcaYJyXNQlili+6fPBi9IdzeMyvH/xRJq/fwb2bl0T/E75CsII1ZdOcGiSUqzMfL57x3HZoIOjdKM2Cg/JBTQ3t85WPb6soLC/9JhEV2yVPHp87FSZrqHKobbcOJPIdsKoPqPalbsVerThuc/onYQZ1idIa8lGR9bUOZTkeGS/w+Nc1CWGXbGlaePDfzOx9Z0pr79nfN1Z8dG7ut4eS56f32K3Plpw/M/Nu7dp/WyuN/B0krZlsDNwoSUWzKy+e8dx2aCDpHGAwYTj57ztsQm4+Xw3tX/7QIa7zJtmyEB/1QN+5cvjZjVJciO8b5U+tx+idiB/swRmfIi4QVYx+nYwn+UIeqaRbCito4+nBoYFuDtGEUny3+4Oelu91jNo5yI8QSFebj5XPeuw5NAB0FGh+pnfwSwBQgDL9tgrrg5xuH9rdqA3MKvwGkbxxzExbZ/U+nfU7fknZBXyFhxdomh2zaJ5woET+p9bi+TcAO6gJpjM4233i7Cb4lpDL4tdMxop942Zj7LIQFFZWtY8F0DiKtK588GO1439wxb258x8xt3zGLHw3MtftfBCMrKF9n/Qp0QyKKTWMMVzePA61nwTpGbghoDjACkVDZhR4yYY1euRc//cA3XjzlpAB1hKZlVAfputBr8qUEtovXH7rnuqEMPiXE5yFZ/DsuO9Qn2M7Ueny2QflV0xidQWZRr4wVWi+2kduY5km5zkZYbfrxMzdILFFhPl4+5z1OC8ABaARRpY6QDAeYBMJCGaAjTAPOhqM3hocH8Fu10akRvigG2pFCWE4uiyKoTpw8fPecVFAGdyZ87pMjPeeyY5w/tZ5Qv1fBD+aN0dn250WMsKBhbTpeBjsFUiSi2JSWzX1NQcIdJ7YuBL4UorvvahIWdQrf1Ab0dMQi1FOXsGg5XrdrV8JUwyfD9zy2PyAf7VeuO8pJrYfapy52UJdYnW2+i0pYeoBf8WNrCgx+jcCFkbtqlDUBWoEsUDaPALgOvjDflS8hhiYIy8lk0VVVp+FtxXtf23y2wHIxaQxh5agH21AHO7wdMTpDmSp6o345CJXrC/fZpoQoXI9ILietCdIRnBNtKaWFU0+u8WBeBxiBzDAPpD4QuvIBwprQX6iHfh9LyHCuE069pAiljkzaXrj2tS2H7Bjnz1NPsSlXirB5m0P3MTpDeR9WJNk+G0t56zzLTligBJBWjqOSL/KfUNCp12g3unxuFHYqgAt+ExhyasjrACMQCcqC1AdCV95DpCM9isV4KZKr4pivtCugd0HW9Q77c20TyDhVNnV+ySZo+9R6aN8BFkK7zrFOXxqrsw8rktyQjaX8VZ81QligBEwPU9a0oOxFP8cdgEC3CAQP8CNbCaQIBDveASbg+JDXB8IQkeLPcmAhHo7jtQ4j1FNGWOAo7qTLyHZZncmmUqsDO/bXyYUDDwW9nG0EwqI615EN+jn58AbYczJsjnqw/yTs8LPq7UsSzwF+0Tpf1DUsMAD/wNvDmC0PuJsd8sYehczr6uI9kgBGTmVp2dqAcxrBYal9fIQFeVCGpMvImddcHimaoE4pyeDPYiJM1D3WXpJe2C6fDVNkg36U7Gkb+bQ4tZ6qtkBdpIEuRucQVlAXTMtsjPnqpo1FWFwh2PAJu9T1r+pfJXWwlYs42C/h7Z8IDIsfLAP47PEwZT8+TSAsqw9sFOXHt9gjnEdTVwdMoZ4ywgLSg6NgpCN9OW6ke4ik+LHR1i74hx2eP7ZwOgsRFtZTV7YrDwcRsj7khAV5U+vB+iD1YQdsAn9qcjrc90Z8VpcSnV9LwqIG1muZtEJ2sQAna1g4bQmV0e+q21lt1m6bTS3CUiDkAQJGCS7MH07vb7K0D/P0odqxvh2VsIR1t7YDiv+1U5U1oLa3TfWr78yvg+2UsDpIWK8DMLWNSlwSBpSwlLBeebMrAUWfKYG0AQNKWEpYSliKgc5gQAlLwdoZsLZhhFcdZhtpKmEpYSlhKQY6gwElLAVrZ8Cq0c1so5s22F8JSwlLCUsx0BkMKGEpWDsD1jaM8KrDbKM8JSwlLCUsxUBnMKCEpWDtDFg1upltdNMG+ythKWEpYSkGOoMBJSwFa2fA2oYRXnWYbZRXSlir6zftwe+QUT9qA8WAYmCWGAA+emN+2X0u0Ru9LgyjtlBbKAbah4H/A04zf2Cv+VQuAAAAAElFTkSuQmCC;" parent="1" vertex="1">
          <mxGeometry x="-774.9971428571421" y="-489.99857142857115" width="300" height="60" as="geometry" />
        </mxCell>
        <mxCell id="Npa9Y6lDgFgyrHnARazE-127" style="edgeStyle=orthogonalEdgeStyle;rounded=0;orthogonalLoop=1;jettySize=auto;html=1;exitX=0.5;exitY=0;exitDx=0;exitDy=0;entryX=0.5;entryY=1;entryDx=0;entryDy=0;" parent="1" source="Npa9Y6lDgFgyrHnARazE-112" target="UeKgmQtvJm2V4L9KuCcI-37" edge="1">
          <mxGeometry relative="1" as="geometry" />
        </mxCell>
        <mxCell id="Npa9Y6lDgFgyrHnARazE-112" value="" style="shape=image;verticalLabelPosition=bottom;labelBackgroundColor=default;verticalAlign=top;aspect=fixed;imageAspect=0;image=data:image/png,iVBORw0KGgoAAAANSUhEUgAAAQkAAAA8CAYAAAB1qE/OAAAMFklEQVR4Ae1d73IcxRH341BIFpIl+04pyZL4Y0U2cnwWYIhFpSpwdQng1OkDYCzLlishRaUA48rFEGPzAKp7CPNR7yGeo6neVc/2jmZ65nbnVHe6/nA1u9qZnu6eX/+mZ/aPzr0yvQD6Ux8oBhQDPgyc4xeWVjdAf+oDxYBigGPgBEksLl+BS394Q3/qA8WAYgCQD06QBBLEa/PL+lMfKAYUA3Bx8Q0lCSVEnRAUA34MKEnoTKHZgmJAxICShAJEBIjOsP4ZdlJ8oyShJKEkoRgQMaAkoQARATIps6Xa6c+YlCSUJJQkFAMiBpQkFCAiQHSG9c+wk+IbJQklCSUJxYCIASUJBYgIkEmZLdVOf8akJKEkoSShGBAxoCShABEBojOsf4adFN8MlSRmX78BC7f/AZc++xoaXzyB5oNn2Q+P8W94DetMirPVTg24ccTAUEhifvNDaHz+Ayw++iXqh3WxzTg6UHXWwD/rGEhKErPLG9Do/ieKGFwEgm1Rxll3utqnxDJOGEhGEnNX3oXm7tPKBEGkgTJQ1jg5UXXVoD/LGEhCEhjUiw+f1yYIIgqUpUShgXeWA2+cbKtNErg8SJFBGII43sdAmbr0UKIIBdPM3Do8PtiF3369D4d765Uz0FRyQvoO63prbyfzwdHBNrTmlir7waVfbZKoswdhE4N9jrJdSvv+trS1Am/fX4Wb367B1ndr8PaDVVj58+WBZPhkD+PvM5steLzXgcODfIAR6Pg7erkDhwcdeNxeTz7gw7BDkjnT7mQ2oV39dlrwYr+pgruqnFZ7G/o9HK+cqMwYHpzuGI4sSeAdCTuwU5/H3vVYeucybH2/5vytbK+MFFFk5NArEwOByy6RMPrt6jOkFMDDvsYDD+066rWSjwPv4zQziVa7A4cvy8Rgjx2du/Rq4QSB5FIj++HjN7IkEXObs7n/HBY692Hm+m2YWrsGry6/BVNv3YCZ1l9g/tN9WNx/IRIN9sGd4Tu+tpsTxMrtFZhduJz98BiJ4/o/16Jk+GSn/PvM5nYJXIe9behulklgZnMdulmGUYAwFZhS2hKSZduKhPd4M202cdokgf11e8W4HB3sQH+vBS3LLhxDzDJcRJBKZ+7/kSQJfAgqlDU0dp/C+WvvZ8SA5OD6vbb116CcmAeubnyTk8TcYrGOn72UZxc3vx8NkuBBExMwOSCLjGPciKIA7o4hxtQ2pAq4GDm8Tp0Mj8tJ5Y/C1yO0J4FPS0ok0dh/Duev3cqI4fzGO1nW0LjXy9o07v0PFj55CPnfH4lysA/si7Om6xj3IDBrsK/REsT++2mfc2DEEATXj2auQdtxGad9zO093GuZ2Tf1xlq5n3JGNojNMXIoEHEZUWd/JaavQXTHuqRbav+i7Mobl5fu/FsM7gvtrzKCmL56C5oPn7nrBpYaRELYV8hpmC2MNEnU2MCbmWtB/3j9O4x1fci3Va7ThiURG53XDTBbl1QBF5LDs8C6s3+oL9vGmPORJInQfgQtMxbufO0miMhHtpEoYvYlblqZBGUQsWXMQFStw0FRlekNCBzrenPteGMQ++viphjbWDs6vlsi2cDvtvC2GNh4t6VrrbslWSb7Ob4lV4fosjsI1h0g0of7NhS8deQYe152oFvxFiONE21oukqeoRCxHh33mdnKNry5vSS7Kr6ksaycSTT3/i8G/9Tq1SyT8GYRA5AE9iUZgdeIDKgenceW1G4YZYpZiMvgQEJ9DUB6LeD1XCDkwOK28iB2taO/+dr7ZPH6gwYaJwDq3y7xzk/oOYm6crhvuD3c5phjGifbBn7Ox7ZMEi3oW7dZuS4ke0xJQiYTWlJIZQxJ2IMUSw5Uz26f8rwY7Oq7+xzo9pLDAKTXyZYlmDXwOyatzW0DMEr/bfuyQMBsI9upL6/tMcMggPrac3lGHyvr4QTGg4G3peOSvXgbGPViM3ieFRR3GTDQeNCklJNi/EgfLLltLp2pbtFvB/q9XcgyCk82Z3w+Sg9TxS43Lt75l5hxSORA12KWG+RYKin4Y0tqN4zSDGCNVJUDy0cSGCi+mYQHqARMn/2x7SU9S9cCYKYAQZt8hMLleUkiYi8oJCfF+HG/8v6kseA+CJGz0THgV65H7HHl5UZw4/Kju/mdjfUtaO795CSKxr3/QvP+j85rRBBYxmxc2gbHkgPVs9unPDcDWIMkUB+TrltAIPlSQEntY201/QsPRXEycQU36SqBngeRTYi2rrw/O+BSySl0rr4fwfXmetk6l+oxgpPqYRujo4UNLq/qcWWSCN0CbT56AdMb72VEMfXmn2D+b3uQ3QLdfwGNL5/AhY/vwvTrm9lzFM2HP4tEEXML1HYABX9sabdPeW4GcMgk4csiyBajR0UgxZCEqeOxVQpq0pPqSERi6grvbqSSY/zmsYl0iS0HJYkYPxgdK46tpHtlkoh6mOpeD/AWqOshKvrb7Ad/Dz51GfMwlW1kLDlQPbt9ynMzgDVAxoFlz65GfgAglL7SbrnPRuwLHxvuZu8ldKCP7yHwOyWeTIJv8Nk6Ul8lOzz+iNUTZXJ59mybSo7xr0dfsi22lHTmMgbR3+gYwACXH3tcmSSwg9C+BC4VMKO48NHd/MnL1Q14deWPMLV+E2bf68DFnW/EDALbV9mPQN0o+GPLWIdVqVcMdpqNSzsYDEA8wUs6F3q402bXZiAuYeyflwBYeuxaapAepK9veUTXQ5kRypMCLpWcwm/Vx49sD+lcqnfszxCpY5tBbOV9xBzXIolResHLNjaWHKie3T7lOaW9vqCI6UuSYQBSgyRIBuqI6e1hL7/T0W3jewn526hmKeHph67bpCKduwiHdBkZkmDv20jkFzOOWEciNi6jICc3qfO6g/iMt4s5rkUS2MEovSrODabgjy1529THHBQxwHf1b0DgSHnNNU/wkjwf6DgB2VkKtcWSSMAV2FyGRAr2Ndd629gTkTpz39q6p5JTWkZF6MR95jqWdOb1fePF69DxILZSm9iyNknoR2eKF8okp9MgYpAMOhuVQOogApLtCl6ukw90pn0gACSSMDIcJMZ1oGNOKnZwF3qG03vum2HJQZ3JvirjRzZTOXEkgYbr5+vCRMHBHLPGJEBhaYLTejiJ6hCAh0kSJf0touKgD+lAOpfaWOQkEQi1p5Jsx+A9QRJsmWBfo/ZUSnKwTsn+SCIk2XbJbZf0KshyzJcb5AAkihSfsTvLH8Ll4M+fipS/rYBgwncwKEX3AYoAHgpQH+hMew/4cz2KpxvtfkjuoLOs1C5EjFngMhJwkQTWSSUn649tzEpPP1JM+EpOErYveRvyT8ykYsbQIlwur+px7eUG7xiXHnX2KLDtWf+uJQ48v50ofnSG3Xb0EQT63wDEmuH52OCxD3QSedEj2bh3gJ9pw2C0gV0EYnjG4zqVZmdL95JOx1/noseyMcjoy1BItvTIuMtHqeSQ3r7xI92oXrbZ6/noDNYxY4bZoefLY77xoj54aeSNOkmQ0njXI+b2KD1ViXVjP1NHfYxzSYFHGUKoDG12GoBYgWb7SAIdyXDpkhFEe6kANuuHB7orSG0d7HOJYOyAtHXLsjHhYSrqK5UcI4+9y2Lr5Dp3+YWTF2/D96uk8SJdqKTxC2GF6g9SJs0k7I7xISh8WlL/zZ97z8J859B6uw8/iYYZBs2QCCIMCN+n3wxAWPDaY4HnIdA5X6XOPq+XL4tc/Zi/efZLXHrwv/FgcQeT67X34oUvnrq72lNf2ScBT7w+P7gckoelb/xwvPDjxv3etjdLwPauyWLiSII7VI/dRCH5Jd8LKPYk8hm9/Iam1F6vDe5z9dlJnw01k1CHn3R4FZ/QbE1p6WGv/Np0FZnaJs3YTIIflSTmxwMstFFHRBFzd2QSAKw2Dh+/ShJjQhIaDMMPBvWx28dKEkoSwU8DavC4g2dS/KIkoSShJKEYEDGgJKEAEQEyKbOl2unPlpQklCSUJBQDIgaUJBQgIkB0hvXPsJPiGyUJJQklCcWAiAElCQWICJBJmS3VTn/GpCShJKEkoRgQMaAkoQARAaIzrH+GnRTfKEkoSShJKAZEDChJKEBEgEzKbKl2+jMmJ0ksLl8BvKA/9YFiQDGAfHDulekF0J/6QDGgGPBh4HeTOzUmryXpnAAAAABJRU5ErkJggg==;" parent="1" vertex="1">
          <mxGeometry x="-303.9957142857138" y="25.997142857143103" width="265" height="60" as="geometry" />
        </mxCell>
        <mxCell id="Npa9Y6lDgFgyrHnARazE-119" style="edgeStyle=orthogonalEdgeStyle;rounded=0;orthogonalLoop=1;jettySize=auto;html=1;exitX=1;exitY=0.5;exitDx=0;exitDy=0;entryX=0;entryY=0.5;entryDx=0;entryDy=0;" parent="1" source="Npa9Y6lDgFgyrHnARazE-113" target="UeKgmQtvJm2V4L9KuCcI-30" edge="1">
          <mxGeometry relative="1" as="geometry">
            <mxPoint x="-1332.9985714285713" y="-115.99857142857081" as="sourcePoint" />
          </mxGeometry>
        </mxCell>
        <mxCell id="Npa9Y6lDgFgyrHnARazE-113" value="" style="shape=image;verticalLabelPosition=bottom;labelBackgroundColor=default;verticalAlign=top;aspect=fixed;imageAspect=0;image=data:image/png,iVBORw0KGgoAAAANSUhEUgAAAP0AAAA6CAYAAAB72F/wAAALTElEQVR4Ae1d63JcxRHmeZAtJFv2rlKSJXGxkM0SrwU2YFFUBVQLCaakH0kcy8JyASkqBRaubLjFzgO49BDOT72HeI6hes72nD6jufS5rHRW0z+25lxm+jLd33TPnDlnX1pYXlPykz4QH0jHB14CY88vXlWX//Ca/KQPxAcS8AENegD8KxcX5Sd9ID6QgA8I6BMwsgzoEtCoDwjoBfQS3RPzAQF9YganI74cp5kBCOgF9BLpE/MBAX1iBpfonmZ0p3YX0AvoJdIn5gMC+sQMTkd8OU4z6gvoBfQS6RPzAQF9YgaX6J5mdKd2F9AL6CXSJ+YDAvrEDE5HfDlOM+o3CvqZV2+ouTtfqMuff6M6f3uiul/+qn9wDNfgHtQRZ0vT2cTu7bB7I6C/2PtQdf76g5p/9D/WD+pCG3GCdjiB2CEtO9QC/czimups/YsFdNeAAG2BhjhdWk4n9j5de1cG/ezVd1V358fKgMdBAGgALXGE03UE6f90+r8S6AGk8w+f1gY8Ah9oCfDTcToZYE7X1qVBD+l4ExHeAH60DgA0JdU/XWcQMLaj//u72+q3/z9QR883VH92ofEsuDTo68zhbaDb50C7jOMtrC+ptx4sq5vfraj171fUW18uq6UPrpSiUYZf3brTvb7a3x2ow+eZUcGw2rgvttXh84Ha31wdi5Hryl2mfX9zQ+0PQZ8drRvqCCXofTDc0HqWoXlSdUH2A4fsR89P1j6tAj2suNtAbfqcu6q/8M4Vtf54xflb2lhqFfA12IdFoFMw0OOjF9vqYHO1VfJzQNffHKjDF8eBTnWjxwebzUcwkLMPAysAd5ffh2Vkd9GtwjPUp60CPeexXHfvqZobPFDTb99RUyvX1cuLb6ipN26o6f5H6uJf9tT83rPgwAE8Qh2C967vZIBfurOkZuau6B8cw0Dw9lcrLBpIa5zldG+jAIbD4Yba6hUdcrq3qrZ0BpCDxuVc45SzKu3p2VW1RQY0iIowaPV7RVBDvT7oCdFU1yner8qftgMe+6MMg9N/mex5n2vZd/vHZe+tKpPBWINJWZ5UXt9xa0APm2piUb2z86M6f/09DXQAu+v3yvqfonQ4G3hufJuBfnY+n4fNXM6i/83H7QA9BTxE8H0LCLbRMyfMMwKO49o0Tvp8a5iD5rTlLQNAWrdOdkXpNKV/a0APu+lCoO/sPVXnr9/WQD+/9o6O6p37Q92mc/8/au7PD1V2/VGQDvAAXjHnhTk8RHW7Hqb89vWTPqfOwAE8lQ+BVLYdpXESx+ickLaPK10vowft8xgAm5K9DE+uLijbqS/kXb77zyBYL2z+QwP+3LXbqvvwV3fdSGqPgwrwinUQRPNWg35zYBayygJieravDkbz46NhP9oXsb4ax32axcQANg7+LppcADYpO5enS17ftdaAPjafx7R+7u43bsAzt+gC8Dnz+ptWpMcIzy19Hd7EdeoIVUdrY3jHtMDcGw0IwA/m1XQh7Wj0NCCkD32aQNtC5IanCVuB6YjJRsb0WEmvpFtPOTKZiushoB/2B10otI/pwGtkfzFQWxUfiZXlOT0KAkcjntpHyFoIHTiRdlXfCdkc7rEf2XV3fwmCeWr5mo703ihfAvTAKyY4ghvr4Tm3xHbjKJuIJJQGdViQ1zjFsK9oPdvRNXithSfUl2YTrnZ4jTqjq63rPtarUuIAhvxdpc0T+8NVF69hH1K9bTpl5C3DE+gWQd9XB9YjTSoL0p4g0IcHB0zhQyUH9LaBuGDHenb7Js9zA8cX73x8C9mCleIbpxgO9DQAojp9ItDvwQp5tsDmWxfQzg/ZgF6tLkZPyABC7ZvQz6d3HoW31QHINorE9mCAIKZ0aJ9REBXqmIhb3TYFeswnBnmfDdTBcEfpiO/JpIx9x5RFsSM9N72/dPfrYEYQAjve46T3tOPhGMHMLe32TZ4bo9VIH6kD2/N6pA9RzBcNaAbgA0BI51B75I+paohOmXsIDNDLBWqgFeJN+8ync6h9GVmxLocn1KW6+QZipGlkPG3QRxfyPr6Xrdyvrqvu7s9O4Hfu/1t1H/zkvIeAh5KzkIcdhCUX7FgP242jNEarAXqQy0Q9y/hIPwSOUHuuzoa/L9OoqR+Vg4LHHuSK9fJFTntgoDTaDHqfbKgn2tc3oGO9qiU70sce2XUfPVPn1m5p4E+9/kd18dNdpR/Z7T1Tnb8/URc+uafOvdrTz/G7D/8bBD7nkZ2tMIKZW9rtmzw3RqsJCgM6D+hjTmHksNpzdTX8K4KeRjecW2Npy46ZRSwKguwolw2eSQA9R7+6dovZlw161uac+0MFj+xcm3Lw2sz7n0V35XE259iKccGO9ez2TZ4bo9UAPXVgO/IZ+hEwI+hiaTjwgq2kerccrBPAXnOypdbLP6If8keg0/IY6HGuHdEJ7ISgt+WifWYPCGhf03cR2bF+rOTwBBrYFzFbQF0jI6MvYvK57rNBD41j83pIzSHiX/j4XrYzb3lNvbz0pppavalmbg3Upe1vgxEe2leZz4NsCGZu6eqMpq7lBq6+WBRyJuMUVgS25c/lcD+ayh6L5TvqKCjp8TFwIUAdjxNtGexzI7vl0Hid8o0dH5OLsaiW90l121CdQnYq1DN95rYFrYt9YQ+MtE6d41Kgb9MLN7bSXLBjPbt9k+eYqoLT2vNOLp8QDeMUNUCPNEBGSDkPh9lK/tYm7D3P3vbzRlTyPkFZ/ZCv7dB4PQZ0er8S6GvI7rLdmQc9KN2mV2upERDM3JK2bfqYOoLt3FxeCAJXOmjuVQQ9HVB8aTDI6QU9iag28GL6Gdk9kb5qfwFf2u8+vehz+jq8UE8OTy3bpEZ6EF4+opG/4IOGd5Xo3FWifcExHcBG2jHA5alsMaU07S3g2Xr4QA/1kEZZ/bCdDTifrLZMoXMuAFGGsrK7eHN5ltEP5bP7yMW/yrVS6T0ykM9lxYFfAG7JRSMDNs+c2TiFY0BAG0HpczTTPgD6gvwOPoX7JfTz8ab0yk4ZUGc2AOm7DSVkRz60ZPOc5EiPCgPwm/hs1ln+MCZNo7Ndc+F3yMGB6LvpvhTVAMcBRrQPlFHQexw+kyNf4PNlFGX1A5mM7I4BJx/swvv+qY70mALQJzPWx76BaK+nUJ7dcVjfV3J5Ij/XdM2mHeoju26V80qRHhlBql9njg9tz/p38cDY9PFX8CMa5DGZD/DQ98YpKoI+BFbcgguLe/DpKA2KAB+ffrh9Fn3FfF0G3x50gJ5Ge83f+nwYAEzTgQ+OeGQyfQNZUuQLRHzZ/R/RKNgjwPPMgB4NCqv6nMd5uOsO6nI/i4U8JrlEIAGAOL/YXM44tsfxsa9CjoY0XPJkgFvgDy5kr76Lnn0Nv66DctKS21e+SE4HNMrXN2Xg8kNarsGYwzNkC6o/HKNtYn5gt+Oe14r0NhPYVAO76eRvrdxzfhPtrDes9IcXh/lLMuBg+tVYT8ppnKIG6LVzjT5dhQ4NZZaJZNMQLh/0AwDQ/hA+/JlPDbQu+sOf8AINfCosPMUBWnp6YX0+LKczekko8EqsC8g+0KPsPtvoPmF80DPG88yCHjtQSjfoY/2inZ28Y40pbqyd3K/W36n2W6ORPtVObFpvjLAQZXSkGeavmDbNS+ilN2AI6Fv6V9X2Z5k5q/8C4PQAXMXmAvqWgr6KMaWNgJ7jAwJ6AX3002QcR5I6kzPgCOgF9AL6xHxAQJ+YwSUiT05EHpetBPQCeon0ifmAgD4xg48regjdyckgBPQCeon0ifmAgD4xg0tEnpyIPC5bCegF9BLpE/MBAX1iBh9X9BC6k5NBCOgF9BLpE/MBAX1iBpeIPDkReVy20qCfX7yqLs2/Jj/pA/GBBHzgdxoJNAzVhg/UAAAAAElFTkSuQmCC;" parent="1" vertex="1">
          <mxGeometry x="-1707.9985714285717" y="-144.9985714285711" width="253" height="58" as="geometry" />
        </mxCell>
        <mxCell id="Npa9Y6lDgFgyrHnARazE-116" style="edgeStyle=orthogonalEdgeStyle;rounded=0;orthogonalLoop=1;jettySize=auto;html=1;exitX=0.5;exitY=1;exitDx=0;exitDy=0;entryX=0.5;entryY=0;entryDx=0;entryDy=0;" parent="1" source="Npa9Y6lDgFgyrHnARazE-114" target="UeKgmQtvJm2V4L9KuCcI-19" edge="1">
          <mxGeometry relative="1" as="geometry" />
        </mxCell>
        <mxCell id="Npa9Y6lDgFgyrHnARazE-114" value="" style="shape=image;verticalLabelPosition=bottom;labelBackgroundColor=default;verticalAlign=top;aspect=fixed;imageAspect=0;image=data:image/png,iVBORw0KGgoAAAANSUhEUgAAAPgAAAA6CAYAAACd8ZS0AAAK4klEQVR4Ae2d6W4cRRCAeR6cGDtxsmtkxzZHjBMM2Zg7RkjAarmC1j+AEMfEEYcQAgJiuRMewPJDmJ9+D/Mchapnq6e2093TM9Peo7d+jHpmts+q+rr68vixpdUNkEtkIDaQpg08hopdXL4MF598Wi6RgdhAYjagAEe4nzi/LJfIQGwgMRsQwBNTqHTU4qi4DQjgArh47YRtQABPWLm8J5f76fTsArgALh48YRsQwBNWrnjt6fTaXO8CuAAuHjxhGxDAE1Yu78nlfjq9uQAugIsHT9gGBPCElSteezq9Nte7AC6AiwdP2AYE8ISVy3tyuZ9Obx4V8LmnrsHCjY/h4kdfQ+PTn6H5xV/qwnt8h79hHDG26TQ20fvw9R4F8PObb0Ljk59g8d4/QRfGxTSi8OErXGQ+XTKvBfjc8gY0ut8FQW2DH9NiHmJ002V0ou/h6bsy4POXX4bm7m+V4SbgMQ/MS5Q+PKWLrKdH1pUARyAX7z6oDTdBjnkJ5NNjdNLBDE/XpQHHIXUMz63h7s/bMU8Zrg9P8QLZeMm6tbcD//17B04OtqE1vxRtRFsa8DpzbhNq8xnzLmN4S1sr8PydVbj+/Rps/bAGz3+xCitvXCqVR5ny6sad3WzB/b0OHB9kykSFKqUe7cDxQQfut9ejKrdufX3pZze34fhoF06OOtAtYZBkyMe91ljoqdXehsMeyn9X6ULr5GC4OiG5jBRwXPk2oYz9HLq6vvTSJdj6cc16rWyvjIXxECAK7N4g1GRIZnhytAOH7fWxqj+1g4dVAJ+db8HhUQYStvP+ZhxP1cKOEyHdC5dbq91RHZQpf9uzLd8qZXL5mfdjAXjIVlhz/wEsdO7A7As3YGbtKjy+/CzMPHsNZltvwfkP92Fx/6G3k8AyzMbbnq/uZnCv3FiBuYVL6sJ7hP6FL9eC8rDlG/sdgUCGc9zbhu7moCHObq5DV3n23IvYjCp23erkR+0atQefnV+H+33vGyIzjN/t5XI+OdiBw70WtIzOBnWC3t3WcZQtM0TOIwccD6gUeevG7m9w9uprCmoE23Y9sfV2YT4hh2GufZsBPr+Yz6XmLmZe/fqP4wE4QYBwh3iszPhyTx9isCHGcxpxqG1lAY9dlzKw8bh1Rko8n1g6GjngeArNB3hj/wGcvfqqgvrsxkvKWzdu91Saxu1fYeGDu5C9v+fNB8vAsooMAefc6K3NeDRsN98P+5kbQQjcvH7kYcqm43mc9v0kAk4QYYd72K4+PeC6TQbwize/8YJ5rv25gvvMlVehefcve9yC4Tl1IFhWkYGilx5rwNsdvWhT1pgG5qpjshhl6mPSAKf6Itx1oUwS8KL5Nw3NF25+bYc78BgrQh4yD79ueHDy3KGhabAxn7kBVF0VJW9j8+L6tz78WF4XF5n6C1hqStBflfe1i6/q87QKgoMOdI15Kc+LgCk7RNejE0fHpdpirEegDLK1i9zrkgywrq6Ld6y63JKr/rzNZcuc7XfyJCNlF2yxlXc0lHdVe+H15PfB22TNvT+94M6sXlEe3Om9SwCOZfFK2u4JZPqNnkNDSncaIRm/AqXEyi6vC8+DGyrG0cbQawGPZzN0bkQD+bMVbVs6eudMX3GbTINmARzbcmhsV1E9MOTGTzLgv5v3JDc+InK1h8vGdV+mTMxjEPDWI23jdaG8eRtd9Sjz/hQA93cENAz3hSGAm40MBZvimeljPueKrb4VNDAKMGDQxtDrqG2nE+Vt85X5FgPFNgLAtiqjRy+vVpDztOq3zdwYnekjA84hzNqTe2uURbZf/eghEC4nDgzXZwx9DOQXuHKfl9uBw17/zIBjVKR1OqqDLqFD9As3v/J6eh/Y9FvIEJ0LHO8J3NDQTB/zWSurxnCQG+6JA3DTq/E2cM/uMnwe37wvSk+/0/DTTO96dnlwDkOZgzNcTq52xtAHb09ImRif2qT0VLDvr+s4KsALF9neuZWtoK9vQXPvDyvkjdu/QPPO79bfCG4MQxbZuMDxPhRsimemj/mslVUDcKyPhsFQOuWPhkPDUFv9XeltcW3vdHqjg8G4sQGnNpUdoobApvOuqQ+SUUiZSkZsodXV+VCeuo6Grun3qmHwEL1om6x57yGc2XhFQT7zzItw/r09UNtk+w+h8dnPcO7dW3DmqU21T968+7cX8pBtMrPBBG5oaKaP+ayVVdOgNGCG0nX+xnuzDaHxzHT0rMsfAuDc2/k6LaobhSGwaTnU1EeZMjEutck1zaH8MNR1LNApTxNyHwx40EGX2z3AbTLbARd6N/f6+4Wn2UIOupiNCwWb4pnpYz5rZdUwKG64riF6kbfLDcx/XhzLwqOXXXUuuwOHeA6br8gPA3A2r8WRiblq7tIPl5PLS8bQBy8/pEyMHyp/jKvrOCrAsRJF83AcXqMnP/fOrexE2+oGPL7yHMysX4e5VzpwYedbr+fG9FXm31g3Ajc0xDSndeWKjbPIZhquNgYLeLxNeT3sgKuFK8+qNYKm5o+WcmIP0bHeHBxddsF2H09jyolkkcuhuj4oL7OerjJVPGObjOdh3mudjhLwcfpjE1NAoWBTPDN9zGcyfjTSMsNNXgdfHtoYLOAN5OExMMpDAaz2mbMV9W4bz2Vnf9U2zCE6r7et4zFX1il+EOD9Ff86+qDyMAwpU8XzyJ/nh/ekj6JRmZmu6Dl4iE4ZjdOfi1KdMCRwQ0OeNvY9N4CqCtMKtwzz9W8VAeedh88DjQpw0of6Ixx2MMS2Ys9l7WrL4Bbco1ttVF5oGFIm5pWPHOwjKF6e1ukoPThWSD74EDa0J4VV8RoDBmmBmPI25+bcYHwGptMXGNOoAaf2+DqkUNiozVX0QfWgMLTMiQQcGymfbCqGfABSixcmY7GFGizH3ikZ62kCPlB/SydD0Nm8qq1N9E63zZInxTFDH1C+33g+A+0pqQ+eD94HlzmJQ3RqLEIe49NNKX90kSBQ89yCs91kOHimHOPj5RpyRgPcYehowASiqrsFRmrbOAEe2uGpNmHbHafKyMZdIQfcV+bEenBqOA7X68zJMW3q32FDJfMtJ+8HH9jWlAtulH1dwAlOZehGx4N/gILnwXHvFj9lNCzAW/gHJv2PYfBvkvF5uGs/WcsDRzwFX8Nx6YOXqWTs+eDDgA48ZU484AQ6rq6HbKHRaTWMG/ppJipjkkOCBmEJuYoW5rRBWzwrl5PPwCgPW30U3O0lb0fCOwlbHvwd93I0MuDvsM6++mBeVCfePrp31cW1g1FWH7bONqRMn/yp7hRS+4t0T/FDw9Kr6L6M8YAKnkKTf11kn6Pr73gZe8/42SD0XvwvqXBbyPXNMm0MNQBHPWbbUfmUAEHiB0x85bgMnINN9xxmF+A47FXfSTM/SEmfVCr4sKMNWhfgZMMufSg5YLm9be+IoKjM5AAnwUloB7xILtncNwcu81qDf+lVlIf8Xk32qcotqgdPVUjDbhd5TvKA+Ilhc4447DpJeZPZcQjgp3hktQ4U5md9XSe56pQhaScT2jJ6E8DHFPAySpS46YNaVccCuAB+an90U9UoJV28DksAF8AF8IRtQABPWLniCeN5wkmVpQAugIsHT9gGBPCElTupXkfqHW/kIYAL4OLBE7YBATxh5YonjOcJJ1WWArgALh48YRsQwBNW7qR6Hal3vJGHAC6AiwdP2AYE8ISVK54wniecVFkqwBeXL8OFxaflEhmIDSRmA/8DRzUeqcAJJ3cAAAAASUVORK5CYII=;" parent="1" vertex="1">
          <mxGeometry x="-1705.0014285714285" y="-496.99571428571426" width="248" height="58" as="geometry" />
        </mxCell>
        <mxCell id="Npa9Y6lDgFgyrHnARazE-115" value="&lt;span style=&quot;border-color: var(--border-color); font-size: 14px;&quot;&gt;&lt;b&gt;해당 질문글의 id값을 목록으로 불러온다.&lt;/b&gt;&lt;/span&gt;" style="text;html=1;strokeColor=none;fillColor=none;align=center;verticalAlign=middle;whiteSpace=wrap;rounded=0;" parent="1" vertex="1">
          <mxGeometry x="-1574" y="-198" width="272" height="49" as="geometry" />
        </mxCell>
        <mxCell id="Npa9Y6lDgFgyrHnARazE-130" value="&lt;span style=&quot;border-color: var(--border-color); font-size: 14px;&quot;&gt;&lt;b&gt;해당 질문글을 관리자가 답변한다.&lt;/b&gt;&lt;/span&gt;" style="text;html=1;strokeColor=none;fillColor=none;align=center;verticalAlign=middle;whiteSpace=wrap;rounded=0;" parent="1" vertex="1">
          <mxGeometry x="-1319" y="-423" width="252" height="49" as="geometry" />
        </mxCell>
      </root>
    </mxGraphModel>
  </diagram>
</mxfile>
